<svg version="1.1" id="Layer_1" xmlns="http://www.w3.org/2000/svg" xmlns:xlink="http://www.w3.org/1999/xlink" x="0px" y="0px"
	 width="100%" viewBox="0 0 245 206" enable-background="new 0 0 245 206" xml:space="preserve">
<path fill="#181a1c" opacity="1.000000" stroke="none" 
	d="
M1.000000,74.000000 
	C1.000000,49.333336 1.000000,25.166670 1.000000,1.000003 
	C82.666664,1.000002 164.333328,1.000002 246.000000,1.000001 
	C246.000000,69.666656 246.000000,138.333313 246.000000,206.999969 
	C164.333344,206.999985 82.666695,206.999985 1.000023,207.000000 
	C1.000000,162.833328 1.000000,118.666664 1.000000,74.000000 
M180.107376,9.330320 
	C161.466476,2.277125 142.286591,0.119629 122.768845,4.286028 
	C80.508148,13.307306 50.232540,44.853485 42.325523,87.512901 
	C40.474007,97.502068 38.791630,99.028175 28.385124,99.898430 
	C25.399811,100.148079 22.395519,100.162132 19.403103,100.338158 
	C16.760607,100.493591 14.122531,100.724144 11.482503,100.921539 
	C11.409676,101.398109 11.336848,101.874672 11.264020,102.351242 
	C16.860966,104.188713 22.457912,106.026184 27.959820,107.832458 
	C23.495550,110.144661 18.791889,112.235176 14.458682,114.922943 
	C10.175425,117.579720 6.266399,120.839844 2.193208,123.835297 
	C2.390769,124.047340 2.588330,124.259384 2.785891,124.471428 
	C11.225224,122.894890 19.664557,121.318359 28.103888,119.741821 
	C28.200066,120.106689 28.296244,120.471558 28.392422,120.836418 
	C25.640455,122.365112 22.888491,123.893799 20.136526,125.422485 
	C21.585337,126.067986 22.751360,126.138557 23.866371,125.932755 
	C27.450914,125.271133 30.986763,124.197418 34.596016,123.849831 
	C41.425213,123.192131 42.814285,124.442383 44.802967,130.863113 
	C57.228275,170.979904 83.987877,196.495209 125.187073,203.653946 
	C168.154221,211.119888 202.741852,195.101425 228.121933,159.502319 
	C229.208313,157.978516 230.789581,156.586838 232.448044,155.727692 
	C242.530869,150.504486 246.632294,140.541077 243.215088,129.666428 
	C242.615540,127.758499 242.514084,125.474411 242.904373,123.507256 
	C252.341522,75.943878 225.906235,27.462332 180.107376,9.330320 
z"/>
<path fill="#080808" opacity="1.000000" stroke="none" 
	d="
M180.439575,9.529424 
	C225.906235,27.462332 252.341522,75.943878 242.904373,123.507256 
	C242.514084,125.474411 242.615540,127.758499 243.215088,129.666428 
	C246.632294,140.541077 242.530869,150.504486 232.448044,155.727692 
	C230.789581,156.586838 229.208313,157.978516 228.121933,159.502319 
	C202.741852,195.101425 168.154221,211.119888 125.187073,203.653946 
	C83.987877,196.495209 57.228275,170.979904 44.802967,130.863113 
	C42.814285,124.442383 41.425213,123.192131 34.596016,123.849831 
	C30.986763,124.197418 27.450914,125.271133 23.866371,125.932755 
	C22.751360,126.138557 21.585337,126.067986 20.136526,125.422485 
	C22.888491,123.893799 25.640455,122.365112 28.392422,120.836418 
	C28.296244,120.471558 28.200066,120.106689 28.103888,119.741821 
	C19.664557,121.318359 11.225224,122.894890 2.785891,124.471428 
	C2.588330,124.259384 2.390769,124.047340 2.193208,123.835297 
	C6.266399,120.839844 10.175425,117.579720 14.458682,114.922943 
	C18.791889,112.235176 23.495550,110.144661 27.959820,107.832458 
	C22.457912,106.026184 16.860966,104.188713 11.264020,102.351242 
	C11.336848,101.874672 11.409676,101.398109 11.482503,100.921539 
	C14.122531,100.724144 16.760607,100.493591 19.403103,100.338158 
	C22.395519,100.162132 25.399811,100.148079 28.385124,99.898430 
	C38.791630,99.028175 40.474007,97.502068 42.325523,87.512901 
	C50.232540,44.853485 80.508148,13.307306 122.768845,4.286028 
	C142.286591,0.119629 161.466476,2.277125 180.439575,9.529424 
M73.642433,133.398621 
	C76.862503,134.006165 80.061264,134.882950 83.309074,135.139984 
	C86.141594,135.364151 89.375198,135.659119 91.819511,134.560730 
	C96.640739,132.394241 101.038071,129.284393 105.869156,126.410995 
	C101.989662,116.887527 106.248161,107.315559 107.975868,97.635887 
	C109.730766,87.803886 112.080139,78.078003 114.329430,67.555984 
	C96.292053,74.319778 78.966866,80.816513 61.914433,87.210968 
	C61.630005,86.910233 62.064510,87.764481 62.489792,87.759911 
	C68.570709,87.694550 75.086548,92.127922 80.648125,85.962715 
	C81.376846,85.154907 83.267654,84.746391 84.309326,85.091476 
	C85.038857,85.333145 85.946671,87.618843 85.562965,88.226906 
	C82.701950,92.760612 74.172997,94.287102 68.800835,92.614990 
	C65.476891,91.580399 61.007294,91.251030 58.035126,92.667702 
	C51.400848,95.829887 45.382679,100.284668 39.604103,103.905418 
	C44.979950,105.372841 50.855835,104.321671 55.799351,100.032486 
	C60.087440,96.311966 64.239037,95.820038 68.841080,99.113075 
	C72.012657,101.382530 74.944695,101.913147 78.185135,98.878464 
	C80.516762,96.694901 83.414078,96.016594 86.002434,98.878807 
	C83.470528,105.725876 76.365845,108.062592 70.381012,104.110352 
	C62.402733,98.841682 61.444374,98.815178 53.869583,104.994682 
	C50.025219,108.130913 46.061378,110.254913 40.849468,110.354111 
	C37.675728,110.414528 34.530491,111.972054 30.252577,113.170952 
	C41.279213,115.305466 50.818501,116.533943 58.769531,108.960220 
	C58.985764,108.754250 59.391132,108.752396 59.702888,108.640289 
	C63.560883,107.252899 67.500320,108.511147 67.848145,111.621857 
	C68.305984,115.716469 64.732651,115.658516 62.110985,116.133408 
	C56.114151,117.219673 50.080750,118.104042 44.062199,119.070396 
	C48.310825,120.301498 52.404560,120.917381 56.453640,121.750351 
	C61.319862,122.751427 65.572090,121.829659 69.500511,118.672211 
	C72.858978,115.972847 76.359245,113.380508 80.085052,111.243385 
	C81.481483,110.442383 83.691467,111.059685 85.530525,111.030350 
	C85.397881,113.055588 85.939911,115.537392 84.958221,116.988075 
	C83.786659,118.719345 81.463585,120.122879 79.371925,120.701118 
	C70.750748,123.084419 62.028240,125.101158 53.342983,127.252655 
	C53.391895,127.805115 53.440804,128.357574 53.489716,128.910049 
	C57.635002,128.685349 61.800812,128.643707 65.919510,128.181900 
	C69.657944,127.762711 73.511589,125.879807 77.013802,126.459267 
	C81.663918,127.228653 85.090134,126.425850 88.302429,123.233635 
	C89.710464,121.834396 91.235222,120.366508 92.996429,119.569115 
	C94.344810,118.958633 96.147690,119.351990 97.748405,119.298851 
	C97.403702,121.098419 97.656326,123.870354 96.603462,124.517143 
	C93.307991,126.541565 89.588348,127.960037 85.904846,129.246048 
	C81.687637,130.718384 77.333023,131.797134 72.539223,132.945358 
	C72.315590,133.129761 72.091957,133.314148 71.868317,133.498535 
	C72.094299,133.592438 72.469383,133.815430 72.519737,133.757263 
	C72.710258,133.537231 72.795425,133.226013 73.642433,133.398621 
M162.311874,66.262360 
	C158.373718,68.086334 154.435562,69.910309 150.497406,71.734283 
	C150.787689,72.337646 151.077957,72.941017 151.368225,73.544380 
	C155.606262,71.591759 159.844299,69.639137 164.950974,67.522964 
	C165.954163,66.418884 167.582962,65.433098 167.819153,64.183998 
	C168.208511,62.124866 167.842499,59.874985 167.540802,57.741436 
	C166.255722,48.653790 161.225601,44.981003 152.275238,46.946987 
	C139.873230,49.671131 130.250381,57.442455 120.614349,65.073357 
	C119.809563,65.710686 119.392334,67.059669 119.153656,68.156082 
	C115.873955,83.222061 112.236160,98.227173 109.549103,113.400040 
	C107.089966,127.285927 112.359215,133.355713 126.451393,132.722870 
	C144.705750,131.903122 162.968292,130.616425 181.131470,128.646881 
	C192.979965,127.362053 204.701599,124.715012 216.396744,122.278305 
	C223.700470,120.756554 227.809845,115.258728 227.638519,108.482529 
	C227.466980,101.696709 224.672440,99.113403 216.191940,97.065308 
	C207.026016,94.851669 197.842712,92.615715 188.860626,89.776810 
	C184.699615,88.461685 180.444611,86.300758 177.258362,83.397240 
	C174.587784,80.963623 172.433075,80.216713 170.086807,82.411514 
	C164.939438,87.226593 158.564514,87.250633 152.056259,87.839165 
	C151.692429,86.465317 151.325043,85.078064 150.929108,83.582977 
	C149.716354,83.837524 148.521988,84.088211 146.832733,84.442772 
	C147.359756,81.688622 148.906036,78.699455 148.002808,77.350815 
	C145.528580,73.656487 147.424927,70.857689 149.729462,69.437721 
	C153.430008,67.157555 157.880081,66.087715 162.045944,64.597290 
	C162.175934,64.550781 162.664948,65.507774 162.311874,66.262360 
M80.989822,71.628952 
	C80.804825,71.874352 80.589363,72.103752 80.448357,72.372261 
	C80.383087,72.496567 80.462929,72.697083 80.476982,72.863045 
	C84.468254,72.026718 88.596397,71.585800 92.419159,70.262634 
	C98.351013,68.209435 104.084267,65.577675 109.881996,63.144199 
	C112.091537,62.216789 114.512558,61.512268 116.381844,60.102421 
	C125.950279,52.885693 135.524994,45.669357 147.303238,42.419186 
	C160.797363,38.695526 170.408966,45.869656 171.023926,59.825520 
	C171.163040,62.982811 171.261673,66.158882 171.707413,69.279381 
	C171.979904,71.186897 172.401642,73.404907 173.571381,74.800133 
	C183.237045,86.329094 197.167358,88.132812 211.190475,90.829681 
	C209.658890,84.560593 208.102676,78.455109 205.252258,73.029556 
	C192.432068,48.627243 171.945099,35.094967 144.482956,34.455070 
	C116.559029,33.804409 95.523506,46.887711 80.989822,71.628952 
M237.993073,116.143929 
	C238.029541,118.378548 238.066010,120.613167 238.102478,122.847778 
	C238.571182,122.813095 239.039886,122.778404 239.508591,122.743721 
	C248.249969,87.459953 231.659836,45.982227 199.854706,23.603230 
	C166.243958,-0.046235 122.506050,-0.543904 88.327377,21.800875 
	C61.476364,39.355095 44.626205,72.942642 46.236950,93.172180 
	C47.471123,90.461594 48.329105,87.630951 48.925598,84.746239 
	C59.810860,32.104065 111.868057,-1.137081 164.012131,10.579209 
	C211.685120,21.290892 244.176102,66.988274 237.993073,116.143929 
M100.251610,140.039948 
	C96.908813,147.902420 98.389496,154.944122 104.383690,159.691040 
	C109.835861,164.008698 118.150955,164.251450 123.900223,160.260788 
	C130.082855,155.969315 132.370377,148.762756 130.047791,141.891129 
	C129.031281,138.883682 127.397865,137.913788 124.233727,137.942947 
	C118.525368,137.995575 112.494194,138.446701 108.262016,131.893600 
	C105.493782,134.642532 103.088211,137.031326 100.251610,140.039948 
M225.381241,123.900002 
	C222.004105,125.175598 218.504608,126.207184 215.294998,127.816849 
	C213.318665,128.808014 211.050400,130.343414 210.185638,132.220596 
	C207.190582,138.722229 209.968857,146.127777 216.240250,149.780426 
	C223.459122,153.984863 233.134460,152.119339 238.239975,145.538589 
	C242.741653,139.736130 242.706909,131.832001 237.601562,126.948120 
	C234.506378,123.987198 231.078583,120.451988 225.381241,123.900002 
M204.448410,137.554108 
	C201.026276,130.504501 200.846054,130.440750 192.999588,131.767395 
	C188.409943,132.543396 183.814682,133.644958 179.196915,133.787094 
	C175.213257,133.909714 174.027710,136.266113 173.212418,139.206985 
	C171.416016,145.686752 174.322876,152.550522 180.268585,155.870758 
	C186.303024,159.240494 192.422714,159.181610 198.179260,155.311615 
	C204.222946,151.248566 206.210693,145.394760 204.448410,137.554108 
M165.940536,154.163467 
	C166.613785,150.504242 168.042252,146.791565 167.787933,143.197983 
	C167.379578,137.428146 164.637970,135.700272 158.875015,136.138016 
	C154.070175,136.502960 149.259659,137.205566 144.461960,137.127380 
	C140.284393,137.059311 138.358429,139.091843 137.487228,142.661514 
	C136.279892,147.608414 136.941055,152.207397 140.436737,156.173401 
	C147.294342,163.953644 157.886749,163.376694 165.940536,154.163467 
M182.432236,191.054749 
	C165.650574,198.653290 147.928253,201.637436 129.888611,198.695572 
	C92.675880,192.626999 66.733261,171.868820 52.746414,136.567139 
	C51.850952,134.307053 50.264988,132.320541 49.000237,130.206772 
	C55.219227,160.490265 84.955238,197.079178 132.724197,201.839722 
	C169.708954,205.525528 214.091583,183.992645 224.179626,157.635254 
	C222.671036,158.345657 221.155243,159.172623 220.212189,160.429367 
	C210.334213,173.593323 197.965271,183.677734 182.432236,191.054749 
M168.882278,168.499908 
	C172.342529,166.821152 175.802795,165.142395 179.332153,163.430115 
	C175.573120,160.770035 172.427261,158.543839 169.287628,156.322067 
	C159.083008,170.430344 144.823135,171.011963 132.618317,158.390793 
	C127.939079,162.034515 123.325264,165.627289 118.850571,169.111725 
	C134.819443,175.274551 151.483948,175.060562 168.882278,168.499908 
M88.829491,52.756027 
	C86.251488,49.496700 83.673492,46.237373 81.095490,42.978046 
	C81.534470,42.502449 81.973442,42.026855 82.412422,41.551258 
	C85.451057,44.367622 88.489693,47.183983 91.683662,50.144318 
	C92.431465,49.459309 93.244316,48.714718 94.082199,47.947205 
	C91.249832,44.528271 88.604500,41.335110 85.959175,38.141949 
	C86.565178,37.632175 87.171188,37.122402 87.777191,36.612629 
	C89.573479,38.365997 91.435249,40.057877 93.151939,41.885990 
	C96.375038,45.318287 96.340157,45.351040 98.957542,43.045387 
	C98.576477,42.538837 98.227257,41.985210 97.791626,41.510960 
	C95.875473,39.424999 94.015831,37.277828 91.983559,35.309967 
	C88.788925,32.216583 85.992104,32.538441 83.204590,36.150631 
	C82.728287,36.767853 82.377167,37.705597 81.754745,37.948681 
	C78.481140,39.227169 76.194305,41.850464 78.052483,44.792179 
	C80.356453,48.439610 84.093513,51.183170 87.259773,54.267628 
	C87.296150,54.303066 87.977631,53.676296 88.829491,52.756027 
M152.675186,187.027161 
	C152.700333,184.562378 153.636185,180.576752 152.568283,179.937271 
	C150.046936,178.427414 146.571823,178.510315 142.869354,177.837692 
	C143.339050,183.701340 143.556732,188.339706 144.206390,192.916748 
	C144.337158,193.838089 146.107269,194.526733 147.121552,195.322662 
	C147.414734,194.950058 147.707901,194.577454 148.001083,194.204865 
	C147.697357,192.855698 147.393631,191.506531 147.008286,189.794754 
	C152.323807,193.670654 152.986160,193.970383 154.382919,193.486832 
	C153.663681,191.544449 152.940125,189.590378 152.675186,187.027161 
M114.645905,175.572433 
	C112.696587,173.799927 110.967529,171.158768 108.713661,170.587265 
	C107.403748,170.255112 104.860085,172.970123 103.573395,174.805908 
	C101.799065,177.337402 100.687531,180.333466 99.341217,183.032059 
	C102.156067,185.915268 102.952034,183.910034 104.062782,181.816284 
	C104.507988,180.977066 105.884789,180.632050 106.837563,180.062103 
	C106.955780,181.145569 107.436890,182.353333 107.117126,183.286758 
	C106.438782,185.266953 104.778404,187.281265 108.907715,187.809433 
	C110.742249,183.996552 112.600479,180.134415 114.645905,175.572433 
M75.877052,162.408173 
	C76.040901,163.583878 76.204750,164.759583 76.475693,166.703705 
	C78.808830,164.560394 80.151939,163.326553 81.967354,161.658844 
	C82.755112,162.496201 83.526054,163.315674 84.943169,164.822021 
	C82.892235,166.210693 81.245377,167.325775 79.598518,168.440842 
	C79.796280,169.004501 79.994049,169.568146 80.191811,170.131805 
	C81.341240,170.004364 82.803757,170.279312 83.581490,169.674164 
	C85.931419,167.845764 88.016548,165.676788 90.202980,163.638519 
	C92.814362,161.204086 92.535507,158.665314 90.281242,156.248352 
	C88.042046,153.847549 85.557724,153.293732 82.932983,155.794037 
	C80.768593,157.855804 78.575676,159.887634 75.877052,162.408173 
M72.032028,70.613785 
	C71.391479,70.077202 70.750931,69.540627 70.110374,69.004044 
	C70.296753,68.639771 70.483139,68.275497 70.669518,67.911224 
	C72.625473,68.674065 74.581436,69.436905 76.537392,70.199753 
	C76.973328,69.934273 77.409256,69.668800 77.845184,69.403320 
	C77.292496,68.205620 77.063515,66.507690 76.127663,65.902107 
	C73.072273,63.924969 69.791206,62.282761 66.534691,60.634754 
	C64.057098,59.380939 64.014931,59.464268 62.666218,62.725441 
	C64.273804,64.018585 65.850105,65.286575 67.426407,66.554558 
	C67.190193,66.854485 66.953979,67.154411 66.717773,67.454338 
	C64.831284,66.656845 62.944790,65.859360 60.849609,64.973648 
	C60.284096,66.264282 59.845825,67.264511 59.321873,68.460297 
	C64.199600,71.036301 68.846985,73.490662 73.391289,75.890587 
	C75.680435,73.640625 75.597267,72.016388 72.032028,70.613785 
M200.157074,37.508511 
	C197.164520,40.791828 194.171982,44.075142 191.203094,47.332504 
	C198.397736,55.795422 201.714340,52.839252 207.163696,45.027439 
	C208.009338,43.815174 207.064789,40.587921 205.942871,39.004871 
	C204.996841,37.670006 203.710556,34.129936 200.157074,37.508511 
M171.228745,29.625916 
	C170.624924,31.152838 170.021088,32.679760 169.325317,34.439232 
	C170.454666,34.970661 171.451340,35.439648 172.450165,35.909653 
	C174.504669,31.949034 176.449615,28.199644 178.394547,24.450254 
	C179.087189,24.779688 179.779831,25.109121 180.472473,25.438555 
	C179.189926,28.663383 177.787720,31.848946 176.707779,35.140255 
	C176.433014,35.977692 177.181702,37.150955 177.460144,38.169914 
	C178.286987,37.665096 179.494324,37.356194 179.873062,36.620644 
	C181.311295,33.827347 183.093216,30.985041 183.529755,27.984037 
	C183.805267,26.089977 182.428986,22.917309 180.859299,22.089203 
	C179.331268,21.283083 176.176865,22.147285 174.544037,23.362804 
	C173.012711,24.502773 172.538208,27.062351 171.228745,29.625916 
M142.873505,20.885546 
	C142.024887,20.425833 141.176254,19.966122 140.211716,19.443617 
	C141.518173,18.976549 142.748260,18.536791 143.978333,18.097033 
	C144.143082,17.590366 144.307816,17.083700 144.472565,16.577034 
	C142.417313,15.448417 140.434357,13.677543 138.279358,13.434939 
	C137.010834,13.292134 134.094788,15.988511 134.305862,16.690493 
	C134.961853,18.872219 136.732498,20.729223 138.122375,22.675316 
	C138.785217,23.603434 139.564865,24.448151 140.291595,25.330647 
	C139.994553,25.536165 139.697495,25.741684 139.400452,25.947203 
	C137.707642,25.227856 136.014816,24.508509 133.839249,23.584021 
	C134.178482,28.563332 136.489426,30.587912 140.151962,29.682487 
	C144.472290,28.614450 145.111511,25.322582 142.873505,20.885546 
M119.048195,187.760696 
	C118.035484,186.498703 117.022781,185.236725 115.606430,183.471725 
	C114.206856,187.296509 114.380066,190.035294 117.589439,190.856262 
	C119.431068,191.327362 122.657227,190.882706 123.511078,189.644348 
	C124.732979,187.872223 124.354721,184.996796 124.659752,182.592484 
	C124.541046,181.904099 126.440025,181.038376 126.383957,180.326660 
	C126.269501,178.873840 125.292992,176.488663 124.330376,176.308258 
	C122.237679,175.916107 119.930885,176.666382 117.711617,176.949677 
	C118.043198,179.153732 117.990326,181.520081 118.830093,183.509628 
	C119.481499,185.052887 123.118248,185.683975 119.048195,187.760696 
M153.386658,24.100735 
	C153.229233,25.099020 153.071808,26.097305 152.930923,26.990709 
	C150.774384,25.621874 149.235245,24.644918 147.696091,23.667963 
	C147.198196,24.305479 146.700287,24.942993 146.202393,25.580507 
	C147.791519,27.104254 149.164841,29.384754 151.036301,29.918451 
	C152.606049,30.366104 155.914307,29.228571 156.398651,27.989740 
	C157.283798,25.725824 156.650467,22.868212 156.650467,19.422110 
	C156.458252,19.673948 157.951965,18.152290 157.759903,17.896542 
	C156.668213,16.442801 155.309647,14.524750 153.778168,14.253499 
	C152.255951,13.983887 149.683044,15.039106 148.934158,16.314093 
	C148.193985,17.574268 148.812027,19.983852 149.503876,21.603132 
	C149.926758,22.592861 151.612198,23.043158 153.386658,24.100735 
M189.389771,28.860222 
	C187.295792,31.373360 184.580383,33.621441 183.351151,36.503414 
	C182.662186,38.118664 183.802414,41.695480 185.276535,42.716484 
	C186.722153,43.717751 189.853241,43.102741 191.831787,42.244926 
	C193.274582,41.619381 194.089630,39.476482 195.110748,37.960331 
	C198.701920,32.628193 196.792969,29.100786 189.389771,28.860222 
M164.930511,181.702545 
	C165.928467,184.310715 166.719193,187.030334 168.031204,189.469574 
	C168.523361,190.384567 170.227249,190.647812 171.378693,191.208191 
	C171.663055,190.822372 171.947418,190.436539 172.231781,190.050705 
	C170.635361,187.133514 170.071701,184.697998 173.432846,182.489319 
	C174.429733,181.834244 174.836426,178.393036 174.041550,177.346375 
	C172.879944,175.816772 170.441940,174.701248 168.449875,174.526291 
	C166.735764,174.375732 164.884338,175.788757 162.888824,176.592957 
	C163.558273,178.274780 164.097778,179.630157 164.930511,181.702545 
M215.054062,85.960106 
	C218.717987,90.897560 222.018158,90.678894 225.580566,85.194458 
	C227.399292,88.389961 229.468628,87.243134 230.429733,84.917130 
	C231.055176,83.403511 230.598892,80.975807 229.731827,79.474869 
	C229.142136,78.454063 226.791504,77.627792 225.610046,77.983238 
	C224.186859,78.411415 222.606659,79.977905 222.080643,81.413078 
	C220.569275,85.536781 220.764648,85.608391 218.538162,84.877853 
	C218.968887,83.068733 219.399918,81.258301 219.830948,79.447861 
	C219.014984,79.199387 218.199005,78.950905 217.383026,78.702431 
	C216.568802,80.859436 215.754562,83.016441 215.054062,85.960106 
M138.144394,188.877960 
	C136.604034,189.441132 135.063660,190.004318 133.161407,190.699799 
	C133.049530,189.379578 132.902939,188.590836 132.929169,187.807861 
	C133.113083,182.314667 133.179245,182.294800 137.816650,184.550873 
	C138.354050,184.812317 139.359100,184.912674 139.694946,184.600693 
	C140.198059,184.133331 140.742355,182.940491 140.496094,182.569946 
	C139.451233,180.997757 138.331940,178.753769 136.840073,178.388657 
	C135.106689,177.964478 131.582855,178.802292 131.235153,179.872086 
	C130.054565,183.504608 129.333405,187.549911 129.762970,191.285034 
	C129.895370,192.436478 134.281235,193.800690 136.698425,193.761642 
	C138.575714,193.731308 141.084671,191.977417 138.144394,188.877960 
M122.292656,21.579784 
	C123.291435,21.042820 124.249855,20.189716 125.300064,20.055658 
	C126.403465,19.914814 127.594757,20.462538 129.291428,20.825783 
	C127.200142,15.636996 125.323235,14.516961 122.094032,15.790592 
	C118.043640,17.388107 117.368507,20.997355 119.990326,27.898403 
	C121.218857,31.132092 123.460167,32.639816 126.995560,31.315165 
	C127.150566,31.257084 127.352455,31.224009 127.442909,31.108891 
	C128.599808,29.636480 129.820709,28.201162 130.804001,26.618872 
	C130.963425,26.362345 130.050385,25.439337 129.633072,24.824387 
	C128.349899,25.823868 127.080139,26.841572 125.770935,27.805702 
	C125.540749,27.975212 125.145279,27.920286 124.135864,28.074394 
	C123.608688,26.205194 123.059074,24.256453 122.292656,21.579784 
M208.060135,50.589581 
	C205.414474,52.491528 202.768814,54.393475 199.965744,56.408573 
	C201.823196,58.873569 203.380844,60.940685 205.644272,63.944443 
	C206.295380,61.874523 207.089996,60.723114 206.859146,59.839649 
	C205.954544,56.377472 205.823914,56.536980 209.144272,56.806404 
	C209.827438,56.861839 210.886566,55.693306 211.284393,54.856831 
	C211.651276,54.085430 211.362457,53.002174 211.362457,51.984615 
	C214.103333,52.116024 214.959091,57.713879 218.099487,53.154369 
	C216.550064,51.037285 215.022293,48.949783 213.426575,46.769432 
	C211.581741,48.043812 210.089081,49.074924 208.060135,50.589581 
M96.712967,167.171127 
	C96.901817,165.403580 97.090660,163.636017 97.279510,161.868469 
	C96.672264,161.775879 96.065010,161.683289 95.457764,161.590683 
	C93.325562,166.547516 91.193359,171.504333 89.067253,176.446991 
	C92.002548,178.593994 98.796707,174.533966 104.057510,167.567795 
	C103.858276,167.133789 103.659050,166.699783 103.459816,166.265778 
	C101.012207,167.450378 98.564598,168.634979 95.735458,170.004227 
	C95.984512,169.045761 96.141129,168.443024 96.712967,167.171127 
M69.254860,148.555740 
	C66.859161,150.881012 66.486664,153.438416 68.779526,155.959045 
	C71.097069,158.506836 73.729706,158.022263 76.344093,156.275085 
	C79.070915,154.452789 81.822517,152.667557 84.605896,150.838104 
	C83.795372,148.056183 82.758415,146.904526 80.143967,148.818832 
	C77.603638,150.678864 74.864334,152.267120 72.908272,153.526657 
	C71.608536,151.185486 70.769417,149.673996 69.254860,148.555740 
M214.849747,67.936119 
	C214.171066,67.723312 212.933197,67.253609 212.895645,67.335350 
	C212.008072,69.267273 210.058716,72.040710 210.731781,73.065720 
	C211.900787,74.846001 214.949814,76.804375 216.773102,76.448296 
	C220.565933,75.707565 224.072769,73.502380 227.950287,71.787086 
	C227.275864,70.425110 226.740479,69.343903 226.171204,68.194283 
	C222.185333,69.925545 218.490997,71.530174 214.255646,73.369797 
	C214.619614,71.280006 214.845856,69.980942 214.849747,67.936119 
M154.948517,80.575523 
	C154.251755,82.308823 153.554977,84.042130 152.368210,86.994385 
	C159.734467,83.466736 166.058868,81.071327 170.074417,75.428101 
	C169.716934,74.798698 169.359451,74.169304 169.001984,73.539909 
	C164.510483,75.725540 160.018982,77.911163 154.948517,80.575523 
M102.955376,41.451031 
	C105.079681,40.218559 107.203987,38.986088 109.367676,37.730766 
	C107.357414,32.122543 104.779419,37.974957 102.280998,36.652267 
	C101.295418,34.933987 100.262428,32.647846 98.782089,30.702038 
	C97.544846,29.075760 97.205200,24.599134 92.858002,28.750679 
	C95.999779,33.097279 99.169800,37.482960 102.955376,41.451031 
M184.163239,181.545609 
	C185.407425,183.158157 186.385590,185.932526 188.121933,183.522675 
	C186.227982,177.703964 184.544571,172.532135 182.866867,167.377777 
	C180.575928,168.762451 177.751923,170.469330 174.927933,172.176193 
	C174.891220,172.655502 174.854507,173.134796 174.817795,173.614105 
	C176.384399,173.932297 177.950989,174.250488 180.060562,174.678955 
	C181.067368,176.328415 182.447556,178.589615 184.163239,181.545609 
M75.569603,53.868484 
	C75.058205,52.663708 74.520493,51.469200 74.044914,50.250439 
	C73.742172,49.474613 73.531654,48.662796 73.279785,47.867115 
	C72.498825,48.122211 71.427567,48.138901 70.987892,48.674274 
	C69.222542,50.823830 67.652779,53.134014 66.010727,55.384819 
	C66.183151,55.809120 66.355576,56.233421 66.528000,56.657722 
	C68.165398,56.251915 69.802788,55.846107 71.657578,55.386417 
	C74.653008,57.479633 77.982895,59.806564 81.312775,62.133495 
	C81.754036,61.885071 82.195305,61.636650 82.636566,61.388226 
	C82.226189,60.266613 82.113914,58.838196 81.342247,58.088409 
	C79.820457,56.609779 77.933174,55.507317 75.569603,53.868484 
M157.873901,182.778366 
	C158.568604,186.303192 159.263306,189.828018 160.010162,193.617523 
	C161.506943,193.149597 162.623581,192.800537 163.678970,192.470612 
	C163.039032,189.020706 162.463074,185.963028 161.905869,182.901947 
	C160.836884,177.029236 160.841309,177.028427 156.906799,177.703903 
	C157.172226,179.116180 157.438095,180.530777 157.873901,182.778366 
M89.858391,140.994904 
	C88.271751,141.377304 86.685112,141.759689 84.568253,142.269867 
	C86.590195,144.845459 88.422882,147.179962 90.255569,149.514481 
	C90.593590,149.387726 90.931618,149.260971 91.269638,149.134232 
	C91.078911,146.348419 90.888184,143.562622 89.858391,140.994904 
z"/>
<path fill="#FAFAFA" opacity="1.000000" stroke="none" 
	d="
M162.986588,65.996933 
	C162.664948,65.507774 162.175934,64.550781 162.045944,64.597290 
	C157.880081,66.087715 153.430008,67.157555 149.729462,69.437721 
	C147.424927,70.857689 145.528580,73.656487 148.002808,77.350815 
	C148.906036,78.699455 147.359756,81.688622 146.832733,84.442772 
	C148.521988,84.088211 149.716354,83.837524 150.929108,83.582977 
	C151.325043,85.078064 151.692429,86.465317 152.056259,87.839165 
	C158.564514,87.250633 164.939438,87.226593 170.086807,82.411514 
	C172.433075,80.216713 174.587784,80.963623 177.258362,83.397240 
	C180.444611,86.300758 184.699615,88.461685 188.860626,89.776810 
	C197.842712,92.615715 207.026016,94.851669 216.191940,97.065308 
	C224.672440,99.113403 227.466980,101.696709 227.638519,108.482529 
	C227.809845,115.258728 223.700470,120.756554 216.396744,122.278305 
	C204.701599,124.715012 192.979965,127.362053 181.131470,128.646881 
	C162.968292,130.616425 144.705750,131.903122 126.451393,132.722870 
	C112.359215,133.355713 107.089966,127.285927 109.549103,113.400040 
	C112.236160,98.227173 115.873955,83.222061 119.153656,68.156082 
	C119.392334,67.059669 119.809563,65.710686 120.614349,65.073357 
	C130.250381,57.442455 139.873230,49.671131 152.275238,46.946987 
	C161.225601,44.981003 166.255722,48.653790 167.540802,57.741436 
	C167.842499,59.874985 168.208511,62.124866 167.819153,64.183998 
	C167.582962,65.433098 165.954163,66.418884 164.441513,67.262344 
	C163.616898,66.666794 163.301743,66.331871 162.986588,65.996933 
M152.337570,123.480446 
	C154.466660,124.395119 156.548080,125.458733 158.744904,126.161705 
	C159.845261,126.513802 161.806442,126.715736 162.270142,126.121246 
	C166.507950,120.687988 172.324387,123.114777 177.589264,122.626129 
	C179.784409,122.422394 183.438583,121.736336 183.776199,120.528168 
	C185.232224,115.317848 185.879745,109.850937 186.443466,104.438049 
	C186.649124,102.463440 185.909073,100.352982 185.406509,98.353249 
	C184.969620,96.614830 184.691849,94.019615 183.555893,93.488655 
	C182.252289,92.879333 180.073166,94.097710 178.288773,94.575859 
	C176.666672,95.010521 175.087891,95.635353 173.447815,95.968719 
	C169.492249,96.772713 166.357727,92.833244 163.545502,92.936005 
	C157.914062,93.141769 150.763535,90.407303 147.145309,97.905975 
	C141.309586,90.808144 136.658051,89.239281 131.589874,92.382240 
	C127.502701,94.916847 127.025124,98.286255 130.155991,105.043640 
	C128.776428,104.707008 127.023453,104.674644 126.885185,104.185669 
	C125.079109,97.798859 120.558128,100.790138 117.284851,101.778481 
	C115.801407,102.226402 114.128143,105.243225 114.208244,107.019470 
	C114.385948,110.960083 119.559067,114.563156 123.624481,114.364594 
	C124.952530,114.299744 126.281517,114.246796 127.607872,114.156158 
	C130.816406,113.936905 131.552536,115.328011 130.044571,118.012779 
	C128.156357,121.374573 128.407257,124.458542 131.381744,126.951500 
	C134.514374,129.576981 138.689926,130.267441 141.497833,127.687828 
	C144.535934,124.896759 147.945602,124.270828 152.337570,123.480446 
z"/>
<path fill="#FAFAFA" opacity="1.000000" stroke="none" 
	d="
M81.192963,71.309196 
	C95.523506,46.887711 116.559029,33.804409 144.482956,34.455070 
	C171.945099,35.094967 192.432068,48.627243 205.252258,73.029556 
	C208.102676,78.455109 209.658890,84.560593 211.190475,90.829681 
	C197.167358,88.132812 183.237045,86.329094 173.571381,74.800133 
	C172.401642,73.404907 171.979904,71.186897 171.707413,69.279381 
	C171.261673,66.158882 171.163040,62.982811 171.023926,59.825520 
	C170.408966,45.869656 160.797363,38.695526 147.303238,42.419186 
	C135.524994,45.669357 125.950279,52.885693 116.381844,60.102421 
	C114.512558,61.512268 112.091537,62.216789 109.881996,63.144199 
	C104.084267,65.577675 98.351013,68.209435 92.419159,70.262634 
	C88.596397,71.585800 84.468254,72.026718 80.476982,72.863045 
	C80.462929,72.697083 80.383087,72.496567 80.448357,72.372261 
	C80.589363,72.103752 80.804825,71.874352 81.192963,71.309196 
z"/>
<path fill="#F7F7F7" opacity="1.000000" stroke="none" 
	d="
M73.038109,133.046890 
	C77.333023,131.797134 81.687637,130.718384 85.904846,129.246048 
	C89.588348,127.960037 93.307991,126.541565 96.603462,124.517143 
	C97.656326,123.870354 97.403702,121.098419 97.748413,119.298851 
	C96.147690,119.351990 94.344810,118.958633 92.996429,119.569115 
	C91.235222,120.366508 89.710464,121.834396 88.302429,123.233635 
	C85.090134,126.425850 81.663918,127.228653 77.013802,126.459267 
	C73.511589,125.879807 69.657944,127.762711 65.919510,128.181900 
	C61.800812,128.643707 57.635002,128.685349 53.489716,128.910049 
	C53.440804,128.357574 53.391895,127.805115 53.342983,127.252655 
	C62.028240,125.101158 70.750748,123.084419 79.371925,120.701118 
	C81.463585,120.122879 83.786659,118.719345 84.958221,116.988075 
	C85.939911,115.537392 85.397881,113.055588 85.530525,111.030350 
	C83.691467,111.059685 81.481483,110.442383 80.085052,111.243385 
	C76.359245,113.380508 72.858978,115.972847 69.500511,118.672211 
	C65.572090,121.829659 61.319862,122.751427 56.453640,121.750351 
	C52.404560,120.917381 48.310825,120.301498 44.062199,119.070396 
	C50.080750,118.104042 56.114151,117.219673 62.110985,116.133408 
	C64.732651,115.658516 68.305984,115.716469 67.848145,111.621857 
	C67.500320,108.511147 63.560883,107.252899 59.702888,108.640289 
	C59.391132,108.752396 58.985764,108.754250 58.769531,108.960220 
	C50.818501,116.533943 41.279213,115.305466 30.252577,113.170952 
	C34.530491,111.972054 37.675728,110.414528 40.849468,110.354111 
	C46.061378,110.254913 50.025219,108.130913 53.869583,104.994682 
	C61.444374,98.815178 62.402733,98.841682 70.381012,104.110352 
	C76.365845,108.062592 83.470528,105.725876 86.002434,98.878807 
	C83.414078,96.016594 80.516762,96.694901 78.185135,98.878464 
	C74.944695,101.913147 72.012657,101.382530 68.841080,99.113075 
	C64.239037,95.820038 60.087440,96.311966 55.799351,100.032486 
	C50.855835,104.321671 44.979950,105.372841 39.604103,103.905418 
	C45.382679,100.284668 51.400848,95.829887 58.035126,92.667702 
	C61.007294,91.251030 65.476891,91.580399 68.800835,92.614990 
	C74.172997,94.287102 82.701950,92.760612 85.562965,88.226906 
	C85.946671,87.618843 85.038857,85.333145 84.309326,85.091476 
	C83.267654,84.746391 81.376846,85.154907 80.648125,85.962715 
	C75.086548,92.127922 68.570709,87.694550 62.489792,87.759911 
	C62.064510,87.764481 61.630005,86.910233 61.914433,87.210968 
	C78.966866,80.816513 96.292053,74.319778 114.329430,67.555984 
	C112.080139,78.078003 109.730766,87.803886 107.975868,97.635887 
	C106.248161,107.315559 101.989662,116.887527 105.869156,126.410995 
	C101.038071,129.284393 96.640739,132.394241 91.819511,134.560730 
	C89.375198,135.659119 86.141594,135.364151 83.309074,135.139984 
	C80.061264,134.882950 76.862503,134.006165 73.313309,133.195175 
	C72.984184,132.991730 73.038109,133.046890 73.038109,133.046890 
z"/>
<path fill="#E6E7E7" opacity="1.000000" stroke="none" 
	d="
M238.022247,115.709747 
	C244.176102,66.988274 211.685120,21.290892 164.012131,10.579209 
	C111.868057,-1.137081 59.810860,32.104065 48.925598,84.746239 
	C48.329105,87.630951 47.471123,90.461594 46.236950,93.172180 
	C44.626205,72.942642 61.476364,39.355095 88.327377,21.800875 
	C122.506050,-0.543904 166.243958,-0.046235 199.854706,23.603230 
	C231.659836,45.982227 248.249969,87.459953 239.508591,122.743721 
	C239.039886,122.778404 238.571182,122.813095 238.102478,122.847778 
	C238.066010,120.613167 238.029541,118.378548 238.022247,115.709747 
z"/>
<path fill="#FBFBFB" opacity="1.000000" stroke="none" 
	d="
M100.467125,139.730026 
	C103.088211,137.031326 105.493782,134.642532 108.262016,131.893600 
	C112.494194,138.446701 118.525368,137.995575 124.233727,137.942947 
	C127.397865,137.913788 129.031281,138.883682 130.047791,141.891129 
	C132.370377,148.762756 130.082855,155.969315 123.900223,160.260788 
	C118.150955,164.251450 109.835861,164.008698 104.383690,159.691040 
	C98.389496,154.944122 96.908813,147.902420 100.467125,139.730026 
z"/>
<path fill="#FBFBFB" opacity="1.000000" stroke="none" 
	d="
M225.669464,123.653152 
	C231.078583,120.451988 234.506378,123.987198 237.601562,126.948120 
	C242.706909,131.832001 242.741653,139.736130 238.239975,145.538589 
	C233.134460,152.119339 223.459122,153.984863 216.240250,149.780426 
	C209.968857,146.127777 207.190582,138.722229 210.185638,132.220596 
	C211.050400,130.343414 213.318665,128.808014 215.294998,127.816849 
	C218.504608,126.207184 222.004105,125.175598 225.669464,123.653152 
z"/>
<path fill="#FBFBFB" opacity="1.000000" stroke="none" 
	d="
M204.610825,137.936569 
	C206.210693,145.394760 204.222946,151.248566 198.179260,155.311615 
	C192.422714,159.181610 186.303024,159.240494 180.268585,155.870758 
	C174.322876,152.550522 171.416016,145.686752 173.212418,139.206985 
	C174.027710,136.266113 175.213257,133.909714 179.196915,133.787094 
	C183.814682,133.644958 188.409943,132.543396 192.999588,131.767395 
	C200.846054,130.440750 201.026276,130.504501 204.610825,137.936569 
z"/>
<path fill="#FBFBFB" opacity="1.000000" stroke="none" 
	d="
M165.723755,154.476562 
	C157.886749,163.376694 147.294342,163.953644 140.436737,156.173401 
	C136.941055,152.207397 136.279892,147.608414 137.487228,142.661514 
	C138.358429,139.091843 140.284393,137.059311 144.461960,137.127380 
	C149.259659,137.205566 154.070175,136.502960 158.875015,136.138016 
	C164.637970,135.700272 167.379578,137.428146 167.787933,143.197983 
	C168.042252,146.791565 166.613785,150.504242 165.723755,154.476562 
z"/>
<path fill="#E6E7E6" opacity="1.000000" stroke="none" 
	d="
M182.785248,190.916168 
	C197.965271,183.677734 210.334213,173.593323 220.212189,160.429367 
	C221.155243,159.172623 222.671036,158.345657 224.179626,157.635254 
	C214.091583,183.992645 169.708954,205.525528 132.724197,201.839722 
	C84.955238,197.079178 55.219227,160.490265 49.000237,130.206772 
	C50.264988,132.320541 51.850952,134.307053 52.746414,136.567139 
	C66.733261,171.868820 92.675880,192.626999 129.888611,198.695572 
	C147.928253,201.637436 165.650574,198.653290 182.785248,190.916168 
z"/>
<path fill="#F5F5F5" opacity="1.000000" stroke="none" 
	d="
M168.532486,168.671097 
	C151.483948,175.060562 134.819443,175.274551 118.850571,169.111725 
	C123.325264,165.627289 127.939079,162.034515 132.618317,158.390793 
	C144.823135,171.011963 159.083008,170.430344 169.287628,156.322067 
	C172.427261,158.543839 175.573120,160.770035 179.332153,163.430115 
	C175.802795,165.142395 172.342529,166.821152 168.532486,168.671097 
z"/>
<path fill="#EDEEED" opacity="1.000000" stroke="none" 
	d="
M88.593735,53.057335 
	C87.977631,53.676296 87.296150,54.303066 87.259773,54.267628 
	C84.093513,51.183170 80.356453,48.439610 78.052483,44.792179 
	C76.194305,41.850464 78.481140,39.227169 81.754745,37.948681 
	C82.377167,37.705597 82.728287,36.767853 83.204590,36.150631 
	C85.992104,32.538441 88.788925,32.216583 91.983559,35.309967 
	C94.015831,37.277828 95.875473,39.424999 97.791626,41.510960 
	C98.227257,41.985210 98.576477,42.538837 98.957542,43.045387 
	C96.340157,45.351040 96.375038,45.318287 93.151939,41.885990 
	C91.435249,40.057877 89.573479,38.365997 87.777191,36.612629 
	C87.171188,37.122402 86.565178,37.632175 85.959175,38.141949 
	C88.604500,41.335110 91.249832,44.528271 94.082199,47.947205 
	C93.244316,48.714718 92.431465,49.459309 91.683662,50.144318 
	C88.489693,47.183983 85.451057,44.367622 82.412422,41.551258 
	C81.973442,42.026855 81.534470,42.502449 81.095490,42.978046 
	C83.673492,46.237373 86.251488,49.496700 88.593735,53.057335 
z"/>
<path fill="#E9E9E9" opacity="1.000000" stroke="none" 
	d="
M152.445862,187.331741 
	C152.940125,189.590378 153.663681,191.544449 154.382919,193.486832 
	C152.986160,193.970383 152.323807,193.670654 147.008286,189.794754 
	C147.393631,191.506531 147.697357,192.855698 148.001083,194.204865 
	C147.707901,194.577454 147.414734,194.950058 147.121552,195.322662 
	C146.107269,194.526733 144.337158,193.838089 144.206390,192.916748 
	C143.556732,188.339706 143.339050,183.701340 142.869354,177.837692 
	C146.571823,178.510315 150.046936,178.427414 152.568283,179.937271 
	C153.636185,180.576752 152.700333,184.562378 152.445862,187.331741 
z"/>
<path fill="#E8E9E8" opacity="1.000000" stroke="none" 
	d="
M114.552307,175.922363 
	C112.600479,180.134415 110.742249,183.996552 108.907715,187.809433 
	C104.778404,187.281265 106.438782,185.266953 107.117126,183.286758 
	C107.436890,182.353333 106.955780,181.145569 106.837563,180.062103 
	C105.884789,180.632050 104.507988,180.977066 104.062782,181.816284 
	C102.952034,183.910034 102.156067,185.915268 99.341217,183.032059 
	C100.687531,180.333466 101.799065,177.337402 103.573395,174.805908 
	C104.860085,172.970123 107.403748,170.255112 108.713661,170.587265 
	C110.967529,171.158768 112.696587,173.799927 114.552307,175.922363 
z"/>
<path fill="#E9E9E9" opacity="1.000000" stroke="none" 
	d="
M76.136223,162.170441 
	C78.575676,159.887634 80.768593,157.855804 82.932983,155.794037 
	C85.557724,153.293732 88.042046,153.847549 90.281242,156.248352 
	C92.535507,158.665314 92.814362,161.204086 90.202980,163.638519 
	C88.016548,165.676788 85.931419,167.845764 83.581490,169.674164 
	C82.803757,170.279312 81.341240,170.004364 80.191811,170.131805 
	C79.994049,169.568146 79.796280,169.004501 79.598518,168.440842 
	C81.245377,167.325775 82.892235,166.210693 84.943169,164.822021 
	C83.526054,163.315674 82.755112,162.496201 81.967354,161.658844 
	C80.151939,163.326553 78.808830,164.560394 76.475693,166.703705 
	C76.204750,164.759583 76.040901,163.583878 76.136223,162.170441 
z"/>
<path fill="#EFF0EF" opacity="1.000000" stroke="none" 
	d="
M72.366417,70.779251 
	C75.597267,72.016388 75.680435,73.640625 73.391289,75.890587 
	C68.846985,73.490662 64.199600,71.036301 59.321873,68.460297 
	C59.845825,67.264511 60.284096,66.264282 60.849609,64.973648 
	C62.944790,65.859360 64.831284,66.656845 66.717773,67.454338 
	C66.953979,67.154411 67.190193,66.854485 67.426407,66.554558 
	C65.850105,65.286575 64.273804,64.018585 62.666218,62.725441 
	C64.014931,59.464268 64.057098,59.380939 66.534691,60.634754 
	C69.791206,62.282761 73.072273,63.924969 76.127663,65.902107 
	C77.063515,66.507690 77.292496,68.205620 77.845184,69.403320 
	C77.409256,69.668800 76.973328,69.934273 76.537392,70.199753 
	C74.581436,69.436905 72.625473,68.674065 70.669518,67.911224 
	C70.483139,68.275497 70.296753,68.639771 70.110374,69.004044 
	C70.750931,69.540627 71.391479,70.077202 72.366417,70.779251 
z"/>
<path fill="#EBECEB" opacity="1.000000" stroke="none" 
	d="
M200.424683,37.261208 
	C203.710556,34.129936 204.996841,37.670006 205.942871,39.004871 
	C207.064789,40.587921 208.009338,43.815174 207.163696,45.027439 
	C201.714340,52.839252 198.397736,55.795422 191.203094,47.332504 
	C194.171982,44.075142 197.164520,40.791828 200.424683,37.261208 
M203.256378,41.397339 
	C200.900925,43.290623 198.545471,45.183910 196.190018,47.077194 
	C196.626892,47.594257 197.063766,48.111317 197.500641,48.628380 
	C200.689468,47.741459 203.049347,45.849632 203.256378,41.397339 
z"/>
<path fill="#EBECEB" opacity="1.000000" stroke="none" 
	d="
M171.413696,29.311577 
	C172.538208,27.062351 173.012711,24.502773 174.544037,23.362804 
	C176.176865,22.147285 179.331268,21.283083 180.859299,22.089203 
	C182.428986,22.917309 183.805267,26.089977 183.529755,27.984037 
	C183.093216,30.985041 181.311295,33.827347 179.873062,36.620644 
	C179.494324,37.356194 178.286987,37.665096 177.460144,38.169914 
	C177.181702,37.150955 176.433014,35.977692 176.707779,35.140255 
	C177.787720,31.848946 179.189926,28.663383 180.472473,25.438555 
	C179.779831,25.109121 179.087189,24.779688 178.394547,24.450254 
	C176.449615,28.199644 174.504669,31.949034 172.450165,35.909653 
	C171.451340,35.439648 170.454666,34.970661 169.325317,34.439232 
	C170.021088,32.679760 170.624924,31.152838 171.413696,29.311577 
z"/>
<path fill="#E8E9E8" opacity="1.000000" stroke="none" 
	d="
M143.142822,21.177158 
	C145.111511,25.322582 144.472290,28.614450 140.151962,29.682487 
	C136.489426,30.587912 134.178482,28.563332 133.839249,23.584021 
	C136.014816,24.508509 137.707642,25.227856 139.400452,25.947203 
	C139.697495,25.741684 139.994553,25.536165 140.291595,25.330647 
	C139.564865,24.448151 138.785217,23.603434 138.122375,22.675316 
	C136.732498,20.729223 134.961853,18.872219 134.305862,16.690493 
	C134.094788,15.988511 137.010834,13.292134 138.279358,13.434939 
	C140.434357,13.677543 142.417313,15.448417 144.472565,16.577034 
	C144.307816,17.083700 144.143082,17.590366 143.978333,18.097033 
	C142.748260,18.536791 141.518173,18.976549 140.211716,19.443617 
	C141.176254,19.966122 142.024887,20.425833 143.142822,21.177158 
z"/>
<path fill="#E8E9E8" opacity="1.000000" stroke="none" 
	d="
M119.407837,187.908752 
	C123.118248,185.683975 119.481499,185.052887 118.830093,183.509628 
	C117.990326,181.520081 118.043198,179.153732 117.711617,176.949677 
	C119.930885,176.666382 122.237679,175.916107 124.330376,176.308258 
	C125.292992,176.488663 126.269501,178.873840 126.383957,180.326660 
	C126.440025,181.038376 124.541046,181.904099 124.659752,182.592484 
	C124.354721,184.996796 124.732979,187.872223 123.511078,189.644348 
	C122.657227,190.882706 119.431068,191.327362 117.589439,190.856262 
	C114.380066,190.035294 114.206856,187.296509 115.606430,183.471725 
	C117.022781,185.236725 118.035484,186.498703 119.407837,187.908752 
z"/>
<path fill="#E9E9E9" opacity="1.000000" stroke="none" 
	d="
M153.058624,23.918230 
	C151.612198,23.043158 149.926758,22.592861 149.503876,21.603132 
	C148.812027,19.983852 148.193985,17.574268 148.934158,16.314093 
	C149.683044,15.039106 152.255951,13.983887 153.778168,14.253499 
	C155.309647,14.524750 156.668213,16.442801 157.759903,17.896542 
	C157.951965,18.152290 156.458252,19.673948 156.650467,19.422110 
	C156.650467,22.868212 157.283798,25.725824 156.398651,27.989740 
	C155.914307,29.228571 152.606049,30.366104 151.036301,29.918451 
	C149.164841,29.384754 147.791519,27.104254 146.202393,25.580507 
	C146.700287,24.942993 147.198196,24.305479 147.696091,23.667963 
	C149.235245,24.644918 150.774384,25.621874 152.930923,26.990709 
	C153.071808,26.097305 153.229233,25.099020 153.058624,23.918230 
z"/>
<path fill="#EBECEB" opacity="1.000000" stroke="none" 
	d="
M189.729004,28.728016 
	C196.792969,29.100786 198.701920,32.628193 195.110748,37.960331 
	C194.089630,39.476482 193.274582,41.619381 191.831787,42.244926 
	C189.853241,43.102741 186.722153,43.717751 185.276535,42.716484 
	C183.802414,41.695480 182.662186,38.118664 183.351151,36.503414 
	C184.580383,33.621441 187.295792,31.373360 189.729004,28.728016 
M190.687790,32.035316 
	C189.311676,33.840622 187.793228,35.564461 186.675232,37.517529 
	C186.441711,37.925488 187.686508,39.179691 188.250046,40.043922 
	C189.609177,38.724422 191.345108,37.603477 192.184692,36.010185 
	C192.680267,35.069767 191.756348,33.381332 190.687790,32.035316 
z"/>
<path fill="#EBECEB" opacity="1.000000" stroke="none" 
	d="
M164.783905,181.344040 
	C164.097778,179.630157 163.558273,178.274780 162.888824,176.592957 
	C164.884338,175.788757 166.735764,174.375732 168.449875,174.526291 
	C170.441940,174.701248 172.879944,175.816772 174.041550,177.346375 
	C174.836426,178.393036 174.429733,181.834244 173.432846,182.489319 
	C170.071701,184.697998 170.635361,187.133514 172.231781,190.050705 
	C171.947418,190.436539 171.663055,190.822372 171.378693,191.208191 
	C170.227249,190.647812 168.523361,190.384567 168.031204,189.469574 
	C166.719193,187.030334 165.928467,184.310715 164.783905,181.344040 
z"/>
<path fill="#EBECEB" opacity="1.000000" stroke="none" 
	d="
M214.997192,85.566780 
	C215.754562,83.016441 216.568802,80.859436 217.383026,78.702431 
	C218.199005,78.950905 219.014984,79.199387 219.830948,79.447861 
	C219.399918,81.258301 218.968887,83.068733 218.538162,84.877853 
	C220.764648,85.608391 220.569275,85.536781 222.080643,81.413078 
	C222.606659,79.977905 224.186859,78.411415 225.610046,77.983238 
	C226.791504,77.627792 229.142136,78.454063 229.731827,79.474869 
	C230.598892,80.975807 231.055176,83.403511 230.429733,84.917130 
	C229.468628,87.243134 227.399292,88.389961 225.580566,85.194458 
	C222.018158,90.678894 218.717987,90.897560 214.997192,85.566780 
z"/>
<path fill="#E8E9E8" opacity="1.000000" stroke="none" 
	d="
M138.571533,188.940002 
	C141.084671,191.977417 138.575714,193.731308 136.698425,193.761642 
	C134.281235,193.800690 129.895370,192.436478 129.762970,191.285034 
	C129.333405,187.549911 130.054565,183.504608 131.235153,179.872086 
	C131.582855,178.802292 135.106689,177.964478 136.840073,178.388657 
	C138.331940,178.753769 139.451233,180.997757 140.496094,182.569946 
	C140.742355,182.940491 140.198059,184.133331 139.694946,184.600693 
	C139.359100,184.912674 138.354050,184.812317 137.816650,184.550873 
	C133.179245,182.294800 133.113083,182.314667 132.929169,187.807861 
	C132.902939,188.590836 133.049530,189.379578 133.161407,190.699799 
	C135.063660,190.004318 136.604034,189.441132 138.571533,188.940002 
z"/>
<path fill="#EBECEB" opacity="1.000000" stroke="none" 
	d="
M122.401062,21.943748 
	C123.059074,24.256453 123.608688,26.205194 124.135864,28.074394 
	C125.145279,27.920286 125.540749,27.975212 125.770935,27.805702 
	C127.080139,26.841572 128.349899,25.823868 129.633072,24.824390 
	C130.050385,25.439337 130.963425,26.362345 130.804001,26.618872 
	C129.820709,28.201162 128.599808,29.636480 127.442909,31.108891 
	C127.352455,31.224009 127.150566,31.257084 126.995560,31.315165 
	C123.460167,32.639816 121.218857,31.132092 119.990326,27.898403 
	C117.368507,20.997355 118.043640,17.388107 122.094032,15.790592 
	C125.323235,14.516961 127.200142,15.636996 129.291428,20.825783 
	C127.594757,20.462538 126.403465,19.914814 125.300064,20.055658 
	C124.249855,20.189716 123.291435,21.042820 122.401062,21.943748 
z"/>
<path fill="#EDEEED" opacity="1.000000" stroke="none" 
	d="
M208.328278,50.347809 
	C210.089081,49.074924 211.581741,48.043812 213.426575,46.769432 
	C215.022293,48.949783 216.550064,51.037285 218.099487,53.154369 
	C214.959091,57.713879 214.103333,52.116024 211.362457,51.984615 
	C211.362457,53.002174 211.651276,54.085430 211.284393,54.856831 
	C210.886566,55.693306 209.827438,56.861839 209.144272,56.806404 
	C205.823914,56.536980 205.954544,56.377472 206.859146,59.839649 
	C207.089996,60.723114 206.295380,61.874523 205.644272,63.944443 
	C203.380844,60.940685 201.823196,58.873569 199.965744,56.408573 
	C202.768814,54.393475 205.414474,52.491528 208.328278,50.347809 
z"/>
<path fill="#EBECEB" opacity="1.000000" stroke="none" 
	d="
M96.505356,167.505707 
	C96.141129,168.443024 95.984512,169.045761 95.735458,170.004227 
	C98.564598,168.634979 101.012207,167.450378 103.459816,166.265778 
	C103.659050,166.699783 103.858276,167.133789 104.057510,167.567795 
	C98.796707,174.533966 92.002548,178.593994 89.067253,176.446991 
	C91.193359,171.504333 93.325562,166.547516 95.457764,161.590683 
	C96.065010,161.683289 96.672264,161.775879 97.279510,161.868469 
	C97.090660,163.636017 96.901817,165.403580 96.505356,167.505707 
z"/>
<path fill="#E5E6E5" opacity="1.000000" stroke="none" 
	d="
M69.592575,148.359131 
	C70.769417,149.673996 71.608536,151.185486 72.908272,153.526657 
	C74.864334,152.267120 77.603638,150.678864 80.143967,148.818832 
	C82.758415,146.904526 83.795372,148.056183 84.605896,150.838104 
	C81.822517,152.667557 79.070915,154.452789 76.344093,156.275085 
	C73.729706,158.022263 71.097069,158.506836 68.779526,155.959045 
	C66.486664,153.438416 66.859161,150.881012 69.592575,148.359131 
z"/>
<path fill="#EBECEB" opacity="1.000000" stroke="none" 
	d="
M214.960938,68.308998 
	C214.845856,69.980942 214.619614,71.280006 214.255646,73.369797 
	C218.490997,71.530174 222.185333,69.925545 226.171204,68.194283 
	C226.740479,69.343903 227.275864,70.425110 227.950287,71.787086 
	C224.072769,73.502380 220.565933,75.707565 216.773102,76.448296 
	C214.949814,76.804375 211.900787,74.846001 210.731781,73.065720 
	C210.058716,72.040710 212.008072,69.267273 212.895645,67.335350 
	C212.933197,67.253609 214.171066,67.723312 214.960938,68.308998 
z"/>
<path fill="#EBECEB" opacity="1.000000" stroke="none" 
	d="
M155.238007,80.336159 
	C160.018982,77.911163 164.510483,75.725540 169.001984,73.539909 
	C169.359451,74.169304 169.716934,74.798698 170.074417,75.428101 
	C166.058868,81.071327 159.734467,83.466736 152.368210,86.994385 
	C153.554977,84.042130 154.251755,82.308823 155.238007,80.336159 
z"/>
<path fill="#E9E9E9" opacity="1.000000" stroke="none" 
	d="
M102.647598,41.659836 
	C99.169800,37.482960 95.999779,33.097279 92.858002,28.750679 
	C97.205200,24.599134 97.544846,29.075760 98.782089,30.702038 
	C100.262428,32.647846 101.295418,34.933987 102.280998,36.652267 
	C104.779419,37.974957 107.357414,32.122543 109.367676,37.730766 
	C107.203987,38.986088 105.079681,40.218559 102.647598,41.659836 
z"/>
<path fill="#EBECEB" opacity="1.000000" stroke="none" 
	d="
M183.995483,181.198212 
	C182.447556,178.589615 181.067368,176.328415 180.060562,174.678955 
	C177.950989,174.250488 176.384399,173.932297 174.817795,173.614105 
	C174.854507,173.134796 174.891220,172.655502 174.927933,172.176193 
	C177.751923,170.469330 180.575928,168.762451 182.866867,167.377777 
	C184.544571,172.532135 186.227982,177.703964 188.121933,183.522675 
	C186.385590,185.932526 185.407425,183.158157 183.995483,181.198212 
z"/>
<path fill="#EBECEB" opacity="1.000000" stroke="none" 
	d="
M75.883331,54.058884 
	C77.933174,55.507317 79.820457,56.609779 81.342247,58.088409 
	C82.113914,58.838196 82.226189,60.266613 82.636566,61.388226 
	C82.195305,61.636650 81.754036,61.885071 81.312775,62.133495 
	C77.982895,59.806564 74.653008,57.479633 71.657578,55.386417 
	C69.802788,55.846107 68.165398,56.251915 66.528000,56.657722 
	C66.355576,56.233421 66.183151,55.809120 66.010727,55.384819 
	C67.652779,53.134014 69.222542,50.823830 70.987892,48.674274 
	C71.427567,48.138901 72.498825,48.122211 73.279785,47.867115 
	C73.531654,48.662796 73.742172,49.474613 74.044914,50.250439 
	C74.520493,51.469200 75.058205,52.663708 75.883331,54.058884 
z"/>
<path fill="#E6E7E7" opacity="1.000000" stroke="none" 
	d="
M157.788940,182.361877 
	C157.438095,180.530777 157.172226,179.116180 156.906799,177.703903 
	C160.841309,177.028427 160.836884,177.029236 161.905869,182.901947 
	C162.463074,185.963028 163.039032,189.020706 163.678970,192.470612 
	C162.623581,192.800537 161.506943,193.149597 160.010162,193.617523 
	C159.263306,189.828018 158.568604,186.303192 157.788940,182.361877 
z"/>
<path fill="#E8E9E8" opacity="1.000000" stroke="none" 
	d="
M90.277924,140.885864 
	C90.888184,143.562622 91.078911,146.348419 91.269638,149.134232 
	C90.931618,149.260971 90.593590,149.387726 90.255569,149.514481 
	C88.422882,147.179962 86.590195,144.845459 84.568253,142.269867 
	C86.685112,141.759689 88.271751,141.377304 90.277924,140.885864 
z"/>
<path fill="#D2D2D2" opacity="1.000000" stroke="none" 
	d="
M162.649231,66.129654 
	C163.301743,66.331871 163.616898,66.666794 164.007202,67.344116 
	C159.844299,69.639137 155.606262,71.591759 151.368225,73.544380 
	C151.077957,72.941017 150.787689,72.337646 150.497406,71.734283 
	C154.435562,69.910309 158.373718,68.086334 162.649231,66.129654 
z"/>
<path fill="#F7F7F7" opacity="1.000000" stroke="none" 
	d="
M72.952103,132.970306 
	C72.795425,133.226013 72.710258,133.537231 72.519737,133.757263 
	C72.469383,133.815430 72.094299,133.592438 71.868317,133.498535 
	C72.091957,133.314148 72.315590,133.129761 72.788666,132.996124 
	C73.038109,133.046890 72.984184,132.991730 72.952103,132.970306 
z"/>
<path fill="#141414" opacity="1.000000" stroke="none" 
	d="
M151.895905,123.366913 
	C147.945602,124.270828 144.535934,124.896759 141.497833,127.687828 
	C138.689926,130.267441 134.514374,129.576981 131.381744,126.951500 
	C128.407257,124.458542 128.156357,121.374573 130.044571,118.012779 
	C131.552536,115.328011 130.816406,113.936905 127.607872,114.156158 
	C126.281517,114.246796 124.952530,114.299744 123.624481,114.364594 
	C119.559067,114.563156 114.385948,110.960083 114.208244,107.019470 
	C114.128143,105.243225 115.801407,102.226402 117.284851,101.778481 
	C120.558128,100.790138 125.079109,97.798859 126.885185,104.185669 
	C127.023453,104.674644 128.776428,104.707008 130.155991,105.043640 
	C127.025124,98.286255 127.502701,94.916847 131.589874,92.382240 
	C136.658051,89.239281 141.309586,90.808144 147.145309,97.905975 
	C150.763535,90.407303 157.914062,93.141769 163.545502,92.936005 
	C166.357727,92.833244 169.492249,96.772713 173.447815,95.968719 
	C175.087891,95.635353 176.666672,95.010521 178.288773,94.575859 
	C180.073166,94.097710 182.252289,92.879333 183.555893,93.488655 
	C184.691849,94.019615 184.969620,96.614830 185.406509,98.353249 
	C185.909073,100.352982 186.649124,102.463440 186.443466,104.438049 
	C185.879745,109.850937 185.232224,115.317848 183.776199,120.528168 
	C183.438583,121.736336 179.784409,122.422394 177.589264,122.626129 
	C172.324387,123.114777 166.507950,120.687988 162.270142,126.121246 
	C161.806442,126.715736 159.845261,126.513802 158.744904,126.161705 
	C156.548080,125.458733 154.466660,124.395119 151.895905,123.366913 
M181.480026,115.614166 
	C181.480026,115.614166 181.505005,115.583900 181.744064,114.887764 
	C181.170624,113.837891 180.132950,111.850014 180.089706,111.871422 
	C175.943451,113.923470 170.551407,111.006500 166.814011,114.317978 
	C164.127716,111.807831 161.552155,112.808357 159.305969,114.080223 
	C159.655991,117.679893 159.961838,120.825211 160.356796,124.887009 
	C162.916046,122.403496 165.029678,120.352402 167.782471,117.956558 
	C170.530334,120.206451 173.277100,122.683525 176.352798,117.580627 
	C176.796783,118.088371 177.240768,118.596123 177.901642,119.661217 
	C178.261429,119.740974 178.621216,119.820732 179.670639,119.993088 
	C180.460190,119.667435 181.249741,119.341789 182.597977,118.701019 
	C182.233612,117.668045 181.869247,116.635071 181.480026,115.614166 
M161.644333,105.945778 
	C161.644333,105.945778 161.294449,105.789062 160.529297,105.503532 
	C159.897568,102.073303 159.265823,98.643066 158.634094,95.212837 
	C158.158936,95.215332 157.683777,95.217819 157.208618,95.220314 
	C157.208618,99.111542 157.208618,103.002762 157.208618,107.741264 
	C158.835770,106.955330 160.122482,106.333817 160.905350,106.117500 
	C161.256561,106.304138 161.607773,106.490784 162.841110,107.003693 
	C164.285690,106.633537 165.730255,106.263382 167.481384,106.655815 
	C168.562195,106.590706 169.642990,106.525597 170.657471,106.464485 
	C170.657471,104.412033 170.657471,102.676956 170.657471,100.941879 
	C170.989990,100.941795 171.322510,100.941711 171.655029,100.941628 
	C171.882309,102.585152 172.109573,104.228676 172.336853,105.872200 
	C172.768539,105.492241 173.200226,105.112282 173.631912,104.732323 
	C174.887726,105.813004 176.143555,106.893692 177.271896,108.671165 
	C178.925018,108.821548 180.578125,108.971931 182.906143,108.995178 
	C183.620651,108.076950 184.335144,107.158722 185.394836,105.796890 
	C183.032761,105.180748 181.482147,104.776276 179.931519,104.371796 
	C180.464325,104.178299 180.997131,103.984802 181.529938,103.791306 
	C181.619659,101.847839 181.709366,99.904366 182.493423,97.690735 
	C182.301254,96.863983 182.109100,96.037231 181.916931,95.210487 
	C181.247925,96.128212 180.578918,97.045944 179.221970,98.118469 
	C177.944031,99.772644 176.666077,101.426811 175.138245,103.404427 
	C174.785416,102.505432 174.153778,100.896011 173.472107,99.159119 
	C171.482147,99.159119 169.315399,99.159119 167.614594,99.159119 
	C167.418991,101.656265 167.266083,103.608322 166.232819,105.868759 
	C165.395096,103.535477 164.557358,101.202194 163.719635,98.868904 
	C163.274475,98.846756 162.829315,98.824600 162.384155,98.802444 
	C162.232864,101.098434 162.081558,103.394417 161.644333,105.945778 
M126.769852,107.284538 
	C125.042351,106.510269 123.314850,105.736008 121.587349,104.961746 
	C122.202805,104.303391 122.818253,103.645042 123.433708,102.986687 
	C121.670998,103.223213 119.858673,103.286896 118.167442,103.772400 
	C117.373672,104.000267 116.396683,104.971390 116.269547,105.733589 
	C116.153053,106.431969 116.958916,107.398514 117.553505,108.075485 
	C118.549408,109.209335 119.700516,110.206856 121.709976,112.159149 
	C122.527718,111.564423 124.241409,110.318100 126.027649,109.793694 
	C126.195892,110.460503 126.364136,111.127319 126.532387,111.794128 
	C126.991669,111.246468 127.787483,110.719727 127.823181,110.145714 
	C127.865723,109.461708 127.256371,108.737167 126.769852,107.284538 
M151.833771,107.775719 
	C153.043884,107.546837 154.254013,107.317955 155.203552,107.138359 
	C154.623856,103.021858 154.110916,99.379402 153.597977,95.736946 
	C153.142120,95.646919 152.686264,95.556892 152.230392,95.466858 
	C152.021103,96.609932 151.727570,97.745110 151.619431,98.897675 
	C151.366241,101.596428 151.201920,104.303505 150.512848,106.880196 
	C150.347198,106.910240 150.181564,106.940285 150.011703,107.006439 
	C150.011703,107.006439 150.039871,106.978653 150.090683,106.133568 
	C150.401520,100.077660 149.159714,99.039688 143.201675,100.869514 
	C143.147476,99.570183 143.608490,97.622551 142.942383,97.093231 
	C140.953476,95.512695 138.400681,93.341133 136.298523,93.564919 
	C134.142471,93.794449 131.799362,96.296997 130.507080,98.400108 
	C130.061295,99.125595 132.528885,101.641251 133.665649,103.339157 
	C134.123657,103.130287 134.581665,102.921417 135.039673,102.712555 
	C134.809021,104.685265 134.578384,106.657982 134.231827,109.621979 
	C135.948883,108.142441 136.805023,107.169678 137.874207,106.589485 
	C138.358246,106.326828 139.265442,106.843948 140.133926,107.781914 
	C140.412582,108.886757 140.691223,109.991608 140.234421,110.865685 
	C137.979095,111.184486 135.495972,111.062119 133.585373,112.048584 
	C132.864624,112.420700 133.468430,115.358269 133.468430,117.126358 
	C132.619919,119.330597 131.269989,122.207085 132.173340,123.827118 
	C133.050842,125.400780 136.360001,126.552231 138.376877,126.272217 
	C140.104141,126.032417 142.643539,123.590500 142.767151,121.966019 
	C142.909668,120.093239 141.014206,117.866875 139.582169,116.144592 
	C138.671875,115.049789 136.994293,114.592941 135.660797,113.850014 
	C135.856552,113.484123 136.052307,113.118225 136.248062,112.752327 
	C137.812775,113.136032 139.377487,113.519737 141.116043,113.946068 
	C141.013046,112.660225 140.946793,111.833237 141.510773,110.263710 
	C143.140930,110.934006 144.718628,111.930519 146.412766,112.202965 
	C149.427200,112.687729 151.585587,111.729965 151.833771,107.775719 
M150.355118,120.468071 
	C151.650955,120.808609 153.061539,121.636192 154.213196,121.364830 
	C155.612015,121.035240 157.579575,119.985062 157.871231,118.871986 
	C158.248932,117.430557 157.668854,115.175896 156.634979,114.117104 
	C155.899536,113.363930 153.115448,113.382263 152.334106,114.155769 
	C150.648529,115.824432 149.663788,118.201019 148.392303,120.287949 
	C148.858154,120.447220 149.324005,120.606483 150.355118,120.468071 
z"/>
<path fill="#080808" opacity="1.000000" stroke="none" 
	d="
M203.500854,41.669014 
	C203.049347,45.849632 200.689468,47.741459 197.500641,48.628380 
	C197.063766,48.111317 196.626892,47.594257 196.190018,47.077194 
	C198.545471,45.183910 200.900925,43.290623 203.500854,41.669014 
z"/>
<path fill="#141414" opacity="1.000000" stroke="none" 
	d="
M191.079285,32.032303 
	C191.756348,33.381332 192.680267,35.069767 192.184692,36.010185 
	C191.345108,37.603477 189.609177,38.724422 188.250046,40.043922 
	C187.686508,39.179691 186.441711,37.925488 186.675232,37.517529 
	C187.793228,35.564461 189.311676,33.840622 191.079285,32.032303 
z"/>
<path fill="#E5E6E5" opacity="1.000000" stroke="none" 
	d="
M139.980667,107.007324 
	C139.265442,106.843948 138.358246,106.326828 137.874207,106.589485 
	C136.805023,107.169678 135.948883,108.142441 134.231827,109.621979 
	C134.578384,106.657982 134.809021,104.685265 135.039673,102.712555 
	C134.581665,102.921417 134.123657,103.130287 133.665649,103.339157 
	C132.528885,101.641251 130.061295,99.125595 130.507080,98.400108 
	C131.799362,96.296997 134.142471,93.794449 136.298523,93.564919 
	C138.400681,93.341133 140.953476,95.512695 142.942383,97.093231 
	C143.608490,97.622551 143.147476,99.570183 143.607178,101.315063 
	C144.507568,103.001114 145.002457,104.241608 145.484589,105.450134 
	C143.415390,106.035561 141.698029,106.521446 139.980667,107.007324 
z"/>
<path fill="#E0E1E0" opacity="1.000000" stroke="none" 
	d="
M140.880554,111.006241 
	C140.946793,111.833237 141.013046,112.660225 141.116043,113.946068 
	C139.377487,113.519737 137.812775,113.136032 136.248062,112.752327 
	C136.052307,113.118225 135.856552,113.484123 135.660797,113.850014 
	C136.994293,114.592941 138.671875,115.049789 139.582169,116.144592 
	C141.014206,117.866875 142.909668,120.093239 142.767151,121.966019 
	C142.643539,123.590500 140.104141,126.032417 138.376877,126.272217 
	C136.360001,126.552231 133.050842,125.400780 132.173340,123.827118 
	C131.269989,122.207085 132.619919,119.330597 133.468430,117.126358 
	C133.468430,115.358269 132.864624,112.420700 133.585373,112.048584 
	C135.495972,111.062119 137.979095,111.184486 140.580292,110.958427 
	C140.926178,111.051170 140.880554,111.006241 140.880554,111.006241 
M134.178757,121.729691 
	C135.538986,122.484879 136.838135,123.486229 138.295990,123.848007 
	C138.744003,123.959190 140.283005,122.213951 140.167694,121.507179 
	C139.951965,120.184921 138.892273,119.000366 138.237167,117.852257 
	C136.644638,119.262032 135.615738,120.172844 134.178757,121.729691 
z"/>
<path fill="#EBECEB" opacity="1.000000" stroke="none" 
	d="
M177.399368,107.974380 
	C176.143555,106.893692 174.887726,105.813004 173.631912,104.732323 
	C173.200226,105.112282 172.768539,105.492241 172.336853,105.872200 
	C172.109573,104.228676 171.882309,102.585152 171.655029,100.941628 
	C171.322510,100.941711 170.989990,100.941795 170.657471,100.941879 
	C170.657471,102.676956 170.657471,104.412033 170.657471,106.464485 
	C169.642990,106.525597 168.562195,106.590706 167.364319,106.215881 
	C167.247269,105.775940 167.113174,105.560379 167.113159,105.560379 
	C167.266083,103.608322 167.418991,101.656265 167.614594,99.159119 
	C169.315399,99.159119 171.482147,99.159119 173.472107,99.159119 
	C174.153778,100.896011 174.785416,102.505432 175.138245,103.404427 
	C176.666077,101.426811 177.944031,99.772644 179.880966,98.048271 
	C180.959671,97.972343 181.379379,97.966621 181.799088,97.960899 
	C181.709366,99.904366 181.619659,101.847839 181.529938,103.791306 
	C180.997131,103.984802 180.464325,104.178299 179.931519,104.371796 
	C181.482147,104.776276 183.032761,105.180748 185.394836,105.796890 
	C184.335144,107.158722 183.620651,108.076950 182.293396,108.894249 
	C180.253571,108.520340 178.826462,108.247360 177.399368,107.974380 
M179.405914,100.475067 
	C179.405914,100.475067 179.527725,100.397285 179.405914,100.475067 
z"/>
<path fill="#E8E9E8" opacity="1.000000" stroke="none" 
	d="
M140.057297,107.394623 
	C141.698029,106.521446 143.415390,106.035561 145.484589,105.450134 
	C145.002457,104.241608 144.507568,103.001114 144.006989,101.402176 
	C149.159714,99.039688 150.401520,100.077660 149.773972,106.589104 
	C149.141876,107.443748 148.826492,107.842857 148.511108,108.241974 
	C148.770508,108.333344 149.229553,108.545296 149.258453,108.497444 
	C149.551224,108.012733 149.773727,107.485580 150.015945,106.970329 
	C150.181564,106.940285 150.347198,106.910240 150.746948,107.197815 
	C150.990417,107.684708 150.999786,107.853989 151.009155,108.023270 
	C151.585587,111.729965 149.427200,112.687729 146.412766,112.202965 
	C144.718628,111.930519 143.140930,110.934006 141.195663,110.634979 
	C140.880554,111.006241 140.926178,111.051170 140.948029,111.073807 
	C140.691223,109.991608 140.412582,108.886757 140.057297,107.394623 
z"/>
<path fill="#DBDCDC" opacity="1.000000" stroke="none" 
	d="
M176.058670,117.996765 
	C173.277100,122.683525 170.530334,120.206451 167.407684,117.732193 
	C167.011078,116.707436 166.989273,115.907043 166.967468,115.106659 
	C170.551407,111.006500 175.943451,113.923470 180.089706,111.871422 
	C180.132950,111.850014 181.170624,113.837891 181.184418,115.350479 
	C178.882156,115.921654 177.139572,116.030106 175.396973,116.138565 
	C175.617538,116.757965 175.838104,117.377365 176.058670,117.996765 
z"/>
<path fill="#E5E6E5" opacity="1.000000" stroke="none" 
	d="
M166.890747,114.712318 
	C166.989273,115.907043 167.011078,116.707436 167.088104,117.904556 
	C165.029678,120.352402 162.916046,122.403496 160.356796,124.887009 
	C159.961838,120.825211 159.655991,117.679893 159.305969,114.080223 
	C161.552155,112.808357 164.127716,111.807831 166.890747,114.712318 
z"/>
<path fill="#C4C9C8" opacity="1.000000" stroke="none" 
	d="
M125.955093,109.071777 
	C124.241409,110.318100 122.527718,111.564423 121.709976,112.159149 
	C119.700516,110.206856 118.549408,109.209335 117.553505,108.075485 
	C116.958916,107.398514 116.153053,106.431969 116.269547,105.733589 
	C116.396683,104.971390 117.373672,104.000267 118.167442,103.772400 
	C119.858673,103.286896 121.670998,103.223213 123.433708,102.986687 
	C122.818253,103.645042 122.202805,104.303391 121.587349,104.961746 
	C123.314850,105.736008 125.042351,106.510269 126.619324,107.752602 
	C126.248184,108.474564 126.076950,108.758263 125.955093,109.071777 
z"/>
<path fill="#D2D2D2" opacity="1.000000" stroke="none" 
	d="
M150.072479,120.616913 
	C149.324005,120.606483 148.858154,120.447220 148.392303,120.287949 
	C149.663788,118.201019 150.648529,115.824432 152.334106,114.155769 
	C153.115448,113.382263 155.899536,113.363930 156.634979,114.117104 
	C157.668854,115.175896 158.248932,117.430557 157.871231,118.871986 
	C157.579575,119.985062 155.612015,121.035240 154.213196,121.364830 
	C153.061539,121.636192 151.650955,120.808609 150.072479,120.616913 
z"/>
<path fill="#DBDCDC" opacity="1.000000" stroke="none" 
	d="
M151.421463,107.899490 
	C150.999786,107.853989 150.990417,107.684708 150.991333,107.261322 
	C151.201920,104.303505 151.366241,101.596428 151.619431,98.897675 
	C151.727570,97.745110 152.021103,96.609932 152.230392,95.466858 
	C152.686264,95.556892 153.142120,95.646919 153.597977,95.736946 
	C154.110916,99.379402 154.623856,103.021858 155.203552,107.138359 
	C154.254013,107.317955 153.043884,107.546837 151.421463,107.899490 
z"/>
<path fill="#E0E1E0" opacity="1.000000" stroke="none" 
	d="
M161.409210,105.712311 
	C160.122482,106.333817 158.835770,106.955330 157.208618,107.741264 
	C157.208618,103.002762 157.208618,99.111542 157.208618,95.220314 
	C157.683777,95.217819 158.158936,95.215332 158.634094,95.212837 
	C159.265823,98.643066 159.897568,102.073303 160.933075,105.625824 
	C161.336838,105.748116 161.409210,105.712311 161.409210,105.712311 
z"/>
<path fill="#C4C9C8" opacity="1.000000" stroke="none" 
	d="
M166.673004,105.714569 
	C167.113174,105.560379 167.247269,105.775940 167.211060,105.834579 
	C165.730255,106.263382 164.285690,106.633537 162.351105,106.595016 
	C161.884171,106.021019 161.907211,105.855705 161.930267,105.690399 
	C162.081558,103.394417 162.232864,101.098434 162.384155,98.802444 
	C162.829315,98.824600 163.274475,98.846756 163.719635,98.868904 
	C164.557358,101.202194 165.395096,103.535477 166.673004,105.714569 
z"/>
<path fill="#D2D2D2" opacity="1.000000" stroke="none" 
	d="
M176.205734,117.788696 
	C175.838104,117.377365 175.617538,116.757965 175.396973,116.138565 
	C177.139572,116.030106 178.882156,115.921654 181.064880,115.698547 
	C181.505005,115.583900 181.480026,115.614166 181.338440,115.967926 
	C181.477646,117.219841 181.758453,118.117989 182.039276,119.016136 
	C181.249741,119.341789 180.460190,119.667435 179.171783,119.729469 
	C178.343552,119.345192 178.014145,119.224533 177.684753,119.103874 
	C177.240768,118.596123 176.796783,118.088371 176.205734,117.788696 
z"/>
<path fill="#E0E1E0" opacity="1.000000" stroke="none" 
	d="
M177.335632,108.322769 
	C178.826462,108.247360 180.253571,108.520340 181.955963,108.957825 
	C180.578125,108.971931 178.925018,108.821548 177.335632,108.322769 
z"/>
<path fill="#E0E1E0" opacity="1.000000" stroke="none" 
	d="
M182.146255,97.825821 
	C181.379379,97.966621 180.959671,97.972343 180.224945,97.970871 
	C180.578918,97.045944 181.247925,96.128212 181.916931,95.210480 
	C182.109100,96.037231 182.301254,96.863983 182.146255,97.825821 
z"/>
<path fill="#DBDCDC" opacity="1.000000" stroke="none" 
	d="
M182.318634,118.858574 
	C181.758453,118.117989 181.477646,117.219841 181.350861,115.961899 
	C181.869247,116.635071 182.233612,117.668045 182.318634,118.858574 
z"/>
<path fill="#FAFAFA" opacity="1.000000" stroke="none" 
	d="
M125.991371,109.432732 
	C126.076950,108.758263 126.248184,108.474564 126.699127,108.125427 
	C127.256371,108.737167 127.865723,109.461708 127.823181,110.145714 
	C127.787483,110.719727 126.991669,111.246468 126.532387,111.794128 
	C126.364136,111.127319 126.195892,110.460503 125.991371,109.432732 
z"/>
<path fill="#E0E1E0" opacity="1.000000" stroke="none" 
	d="
M161.787292,105.818085 
	C161.907211,105.855705 161.884171,106.021019 161.910049,106.431877 
	C161.607773,106.490784 161.256561,106.304138 161.157288,105.914902 
	C161.409210,105.712311 161.336838,105.748116 161.315643,105.768585 
	C161.294449,105.789062 161.644333,105.945778 161.787292,105.818085 
z"/>
<path fill="#DBDCDC" opacity="1.000000" stroke="none" 
	d="
M177.793198,119.382545 
	C178.014145,119.224533 178.343552,119.345192 178.826965,119.683167 
	C178.621216,119.820732 178.261429,119.740974 177.793198,119.382545 
z"/>
<path fill="#080808" opacity="1.000000" stroke="none" 
	d="
M134.382812,121.406677 
	C135.615738,120.172844 136.644638,119.262032 138.237167,117.852257 
	C138.892273,119.000366 139.951965,120.184921 140.167694,121.507179 
	C140.283005,122.213951 138.744003,123.959190 138.295990,123.848007 
	C136.838135,123.486229 135.538986,122.484879 134.382812,121.406677 
z"/>
<path fill="#E0E1E0" opacity="1.000000" stroke="none" 
	d="
M179.466827,100.436172 
	C179.527725,100.397285 179.405914,100.475067 179.466827,100.436172 
z"/>
<path fill="#E5E6E5" opacity="1.000000" stroke="none" 
	d="
M150.013824,106.988388 
	C149.773727,107.485580 149.551224,108.012733 149.258453,108.497444 
	C149.229553,108.545296 148.770508,108.333344 148.511108,108.241974 
	C148.826492,107.842857 149.141876,107.443748 149.748566,107.011642 
	C150.039871,106.978653 150.011703,107.006439 150.013824,106.988388 
z"/>
</svg>