<svg xmlns="http://www.w3.org/2000/svg" viewBox="0 0 512 512" xml:space="preserve"><path fill="#FFF" d="M513 286v226.948H1c0-72.97 0-145.99.382-219.35.793.878 1.334 2.067 1.596 3.314 2.982 14.185 5.363 28.525 9.01 42.535 4.707 18.077 12.771 34.853 22.067 51.047 10.81 18.834 23.7 36.181 38.85 51.62 10.316 10.511 21.399 20.506 33.247 29.226 20.917 15.394 44 27.147 68.825 34.96 9.47 2.982 19.206.22 19.056-13.91-.15-13.996-.027-27.995-.041-41.992-.002-1.447-.12-2.893-.198-4.638-5.22.787-10.051 2.202-14.85 2.102-11.335-.237-22.79-.323-33.945-2.073-15.752-2.471-28.33-10.404-35.327-25.546-2.828-6.12-5.404-12.402-8.767-18.222-4.454-7.707-9.174-15.248-16.799-20.567-5.822-4.063-12.444-7.57-15.4-15.942 3.816-.736 7.538-2.31 11.089-1.99C95.144 364.91 106.7 373.26 115.943 385c6.27 7.963 10.29 17.651 19.118 23.649 9.804 6.66 20.057 10.864 32.21 8.402 7.42-1.503 14.94-2.534 22.332-4.149 2.806-.613 6.015-1.377 5.56-5.865-.21-2.075 1.156-4.282 1.664-6.462 2.207-9.478 7.348-17.295 14.777-24.946-6.17-.618-11.413-.705-16.467-1.728-17.34-3.511-34.365-7.951-49.84-17.092-10.26-6.06-20.002-12.962-27.022-22.454-17.03-23.027-23.068-49.856-24.123-77.913-.318-8.457.743-17.044 1.937-25.463 2.485-17.506 10.218-32.738 21.65-46.09 2.059-2.407 2.51-4.234 1.575-7.438-1.932-6.627-3.439-13.47-4.2-20.327-1.26-11.357 1.292-22.442 4.005-33.384 2.764-11.145 5.39-12.503 17.056-9.755 17.365 4.09 33.237 11.668 48.272 21.05 5.313 3.316 10.152 6.42 16.822 3.127 3.068-1.515 6.883-1.576 10.384-2.144 8.482-1.378 16.946-2.956 25.478-3.902 7.03-.78 14.16-1.174 21.226-1.003 7.676.186 15.356 1.02 22.99 1.942 8.366 1.01 16.831 1.84 24.98 3.855 8.943 2.211 16.67 3.321 25.227-2.703 14.485-10.2 30.736-17.263 48.202-21.114 8.033-1.772 11.103-.18 13.625 7.83 1.636 5.194 2.815 10.544 3.972 15.874 2.607 12.014 2.666 24.063-1.414 35.722-2.2 6.283-1.443 10.912 2.985 16.124 14.403 16.95 20.28 37.29 20.92 59.117.269 9.138-1.065 18.337-1.868 27.49-1.379 15.74-6.054 30.628-13.064 44.654-8.556 17.116-22.251 29.193-39.042 38.182-16.433 8.798-33.811 14.04-52.292 15.969-3.47.362-6.878 1.331-10.817 2.121 12.05 11.904 16.847 26 17.121 41.489.44 24.821.112 49.656.12 74.485.004 11.936 8.306 18.2 19.591 13.784 14.295-5.594 28.46-11.658 42.217-18.458 20.105-9.937 37.567-23.851 53.45-39.505a246.009 246.009 0 0 0 25.69-29.717c9.207-12.57 18.206-25.542 25.239-39.385 7.217-14.206 12.77-29.42 17.512-44.67 3.665-11.791 4.972-24.317 7.288-36.524.736-3.879 1.344-7.782 2.011-11.674z"/><path d="M513 285.531c-.667 4.361-1.275 8.264-2.01 12.143-2.317 12.207-3.624 24.733-7.29 36.524-4.74 15.25-10.294 30.464-17.511 44.67-7.033 13.843-16.032 26.815-25.24 39.385a246.009 246.009 0 0 1-25.69 29.717c-15.882 15.654-33.344 29.568-53.45 39.505-13.756 6.8-27.92 12.864-42.216 18.458-11.285 4.416-19.587-1.848-19.59-13.784-.009-24.83.319-49.664-.12-74.485-.275-15.488-5.073-29.585-17.122-41.489 3.939-.79 7.346-1.76 10.817-2.121 18.48-1.93 35.86-7.17 52.292-15.969 16.79-8.99 30.486-21.066 39.042-38.182 7.01-14.026 11.685-28.914 13.064-44.654.803-9.153 2.137-18.352 1.869-27.49-.64-21.828-6.518-42.167-20.921-59.117-4.428-5.212-5.184-9.84-2.985-16.124 4.08-11.659 4.021-23.708 1.414-35.722-1.157-5.33-2.336-10.68-3.972-15.874-2.522-8.01-5.592-9.602-13.625-7.83-17.466 3.851-33.717 10.914-48.202 21.114-8.556 6.024-16.284 4.914-25.227 2.703-8.149-2.015-16.614-2.844-24.98-3.855-7.634-.922-15.314-1.756-22.99-1.942-7.067-.171-14.195.222-21.226 1.003-8.532.946-16.996 2.524-25.478 3.902-3.5.568-7.316.629-10.384 2.144-6.67 3.294-11.51.189-16.822-3.126-15.035-9.383-30.907-16.961-48.272-21.051-11.667-2.748-14.292-1.39-17.056 9.755-2.713 10.942-5.265 22.027-4.005 33.384.761 6.857 2.267 13.7 4.2 20.327.935 3.204.484 5.031-1.576 7.437-11.43 13.353-19.164 28.585-21.649 46.091-1.194 8.419-2.255 17.006-1.937 25.463 1.055 28.057 7.093 54.886 24.123 77.913 7.02 9.492 16.762 16.394 27.022 22.454 15.475 9.14 32.5 13.581 49.84 17.092 5.054 1.023 10.297 1.11 16.467 1.728-7.429 7.651-12.57 15.468-14.777 24.946-.508 2.18-1.875 4.387-1.664 6.462.455 4.488-2.754 5.252-5.56 5.865-7.393 1.615-14.911 2.646-22.331 4.149-12.154 2.462-22.407-1.741-32.211-8.402-8.828-5.998-12.847-15.686-19.118-23.649-9.243-11.74-20.8-20.09-36.148-21.477-3.551-.32-7.273 1.254-11.089 1.99 2.956 8.372 9.578 11.88 15.4 15.942 7.625 5.32 12.345 12.86 16.799 20.567 3.363 5.82 5.939 12.101 8.767 18.222 6.998 15.142 19.575 23.075 35.327 25.546 11.155 1.75 22.61 1.836 33.944 2.073 4.8.1 9.631-1.315 14.85-2.102.078 1.745.197 3.191.199 4.638.014 13.997-.109 27.996.04 41.992.151 14.13-9.584 16.892-19.055 13.91-24.825-7.813-47.908-19.566-68.825-34.96-11.848-8.72-22.93-18.715-33.246-29.226-15.151-15.439-28.04-32.786-38.851-51.62-9.296-16.194-17.36-32.97-22.066-51.047-3.648-14.01-6.029-28.35-9.01-42.535-.263-1.247-.804-2.436-1.597-3.782a1566.605 1566.605 0 0 1-.003-59.788A506.338 506.338 0 0 0 5.962 210.9c5.604-31.113 17.912-59.554 34.788-86.057 13.737-21.572 30.501-40.564 50.004-57.21 15.455-13.191 32.25-24.303 50.243-33.553 18.454-9.487 37.841-16.834 58.206-20.915 13.824-2.77 27.871-5.2 41.914-5.918 20.528-1.051 41.034-.04 61.477 3.55 23.64 4.151 46.072 11.486 67.556 21.881 20.447 9.894 39.374 22.343 56.24 37.483 15.679 14.074 29.909 29.575 41.794 47.209 11.833 17.554 22.023 35.895 29.305 55.73 6.616 18.022 11.694 36.495 13.552 55.725.394 4.083 1.293 8.118 1.959 12.175v44.531z"/><path fill="#222" d="M513 240.531c-.666-3.588-1.565-7.623-1.96-11.706-1.857-19.23-6.935-37.703-13.551-55.724-7.282-19.836-17.472-38.177-29.305-55.731-11.884-17.634-26.114-33.135-41.793-47.21-16.867-15.14-35.794-27.59-56.241-37.483-21.484-10.395-43.917-17.73-67.556-21.881-20.443-3.59-40.949-4.601-61.477-3.55-14.043.719-28.09 3.148-41.914 5.918-20.365 4.081-39.752 11.428-58.206 20.915-17.993 9.25-34.788 20.362-50.243 33.553-19.503 16.646-36.267 35.638-50.004 57.21-16.876 26.503-29.184 54.944-34.788 86.057-1.314 7.298-2.798 14.565-4.583 21.973C1 155.7 1 78.403 1 1.052h512v239.48z"/></svg>