<svg xmlns="http://www.w3.org/2000/svg" viewBox="0 0 245 206" xml:space="preserve"><path fill="#181a1c" d="M1 74V1h245v206H1V74M180.107 9.33c-18.64-7.053-37.82-9.21-57.338-5.044-42.26 9.021-72.536 40.567-80.443 83.227-1.852 9.99-3.534 11.515-13.94 12.385-2.986.25-5.99.264-8.983.44-2.642.156-5.28.386-7.92.584l-.219 1.43 16.696 5.48c-4.464 2.313-9.168 4.403-13.501 7.09-4.284 2.658-8.193 5.918-12.266 8.913l.593.636 25.318-4.73.288 1.095c-2.752 1.53-5.504 3.058-8.255 4.586 1.448.646 2.614.717 3.73.51 3.584-.66 7.12-1.735 10.729-2.082 6.83-.658 8.218.592 10.207 7.013 12.425 40.117 39.185 65.632 80.384 72.79 42.967 7.467 77.555-8.552 102.935-44.15 1.086-1.524 2.668-2.916 4.326-3.775 10.083-5.224 14.184-15.187 10.767-26.062-.6-1.908-.7-4.192-.31-6.159 9.437-47.563-16.999-96.045-62.798-114.177z"/><path fill="#080808" d="M180.44 9.53c45.466 17.932 71.902 66.414 62.464 113.977-.39 1.967-.288 4.251.311 6.16 3.417 10.874-.684 20.837-10.767 26.06-1.658.86-3.24 2.252-4.326 3.775-25.38 35.6-59.968 51.618-102.935 44.152-41.2-7.159-67.959-32.674-80.384-72.79-1.989-6.422-3.378-7.672-10.207-7.014-3.61.347-7.145 1.421-10.73 2.083-1.115.206-2.28.135-3.73-.51l8.256-4.587-.288-1.094-25.318 4.73-.593-.637c4.073-2.995 7.982-6.255 12.266-8.912 4.333-2.688 9.037-4.778 13.5-7.09l-16.695-5.482.219-1.43c2.64-.197 5.278-.427 7.92-.583 2.993-.176 5.997-.19 8.982-.44 10.407-.87 12.089-2.396 13.94-12.385 7.908-42.66 38.183-74.206 80.444-83.227 19.518-4.166 38.697-2.009 57.67 5.243M73.643 133.4c3.22.607 6.42 1.484 9.667 1.741 2.833.224 6.066.52 8.51-.58 4.822-2.166 9.22-5.276 14.05-8.149-3.88-9.523.38-19.095 2.107-28.775 1.755-9.832 4.104-19.558 6.353-30.08L61.914 87.211c-.284-.3.15.553.576.549 6.08-.065 12.597 4.368 18.158-1.797.729-.808 2.62-1.217 3.661-.872.73.242 1.638 2.528 1.254 3.136-2.861 4.534-11.39 6.06-16.762 4.388-3.324-1.035-7.794-1.364-10.766.053-6.634 3.162-12.652 7.617-18.43 11.237 5.375 1.468 11.25.417 16.194-3.873 4.288-3.72 8.44-4.212 13.042-.919 3.172 2.27 6.104 2.8 9.344-.235 2.332-2.183 5.23-2.861 7.817 0-2.531 6.848-9.636 9.185-15.621 5.232-7.978-5.268-8.937-5.295-16.511.885-3.845 3.136-7.809 5.26-13.02 5.36-3.174.06-6.32 1.617-10.597 2.816 11.026 2.134 20.566 3.363 28.517-4.21.216-.207.621-.209.933-.32 3.858-1.388 7.797-.13 8.145 2.98.458 4.095-3.115 4.038-5.737 4.512-5.997 1.087-12.03 1.971-18.049 2.937 4.249 1.231 8.343 1.847 12.392 2.68 4.866 1.001 9.118.08 13.047-3.078 3.358-2.7 6.858-5.291 10.584-7.429 1.396-.8 3.606-.183 5.446-.213-.133 2.026.409 4.507-.573 5.958-1.171 1.731-3.494 3.135-5.586 3.713-8.621 2.383-17.344 4.4-26.029 6.552l.147 1.657c4.145-.225 8.31-.266 12.43-.728 3.738-.42 7.592-2.302 11.094-1.723 4.65.77 8.076-.033 11.288-3.225 1.408-1.4 2.933-2.867 4.694-3.665 1.349-.61 3.152-.217 4.752-.27-.344 1.8-.092 4.571-1.145 5.218-3.295 2.025-7.015 3.443-10.698 4.729-4.217 1.472-8.572 2.551-13.366 3.7l-.67.553c.225.093.6.316.65.258.191-.22.276-.531 1.123-.358m88.67-67.137-11.815 5.472.871 1.81c4.238-1.952 8.476-3.905 13.583-6.021 1.003-1.104 2.632-2.09 2.868-3.339.39-2.06.023-4.309-.278-6.443-1.285-9.087-6.315-12.76-15.266-10.794-12.402 2.724-22.025 10.495-31.66 18.126-.805.638-1.223 1.987-1.461 3.083-3.28 15.066-6.918 30.071-9.605 45.244-2.459 13.886 2.81 19.956 16.902 19.323 18.255-.82 36.517-2.107 54.68-4.076 11.849-1.285 23.57-3.932 35.266-6.369 7.303-1.521 11.413-7.02 11.242-13.795-.172-6.786-2.967-9.37-11.447-11.418-9.166-2.213-18.35-4.45-27.331-7.288-4.161-1.315-8.416-3.476-11.603-6.38-2.67-2.433-4.825-3.18-7.171-.985-5.148 4.815-11.522 4.839-18.03 5.427l-1.128-4.256-4.096.86c.527-2.754 2.073-5.744 1.17-7.092-2.474-3.695-.578-6.493 1.726-7.913 3.701-2.28 8.151-3.35 12.317-4.84.13-.047.619.91.266 1.664M80.99 71.63c-.185.245-.4.475-.542.743-.065.125.015.325.029.491 3.991-.836 8.12-1.277 11.942-2.6 5.932-2.054 11.665-4.685 17.463-7.119 2.21-.927 4.63-1.632 6.5-3.042 9.568-7.216 19.143-14.433 30.921-17.683 13.494-3.723 23.106 3.45 23.72 17.407.14 3.157.239 6.333.684 9.453.273 1.908.695 4.126 1.864 5.521 9.666 11.53 23.596 13.333 37.62 16.03-1.532-6.27-3.088-12.375-5.939-17.8-12.82-24.403-33.307-37.935-60.769-38.575-27.924-.65-48.96 12.433-63.493 37.174m157.003 44.515.11 6.704 1.406-.104c8.741-35.284-7.85-76.762-39.654-99.14C166.244-.047 122.506-.545 88.327 21.8c-26.85 17.554-43.7 51.142-42.09 71.371 1.234-2.71 2.092-5.541 2.689-8.426C59.81 32.104 111.868-1.137 164.012 10.58c47.673 10.712 80.164 56.41 73.981 105.565M100.252 140.04c-3.343 7.862-1.863 14.904 4.132 19.651 5.452 4.318 13.767 4.56 19.516.57 6.183-4.292 8.47-11.498 6.148-18.37-1.017-3.007-2.65-3.977-5.814-3.948-5.709.053-11.74.504-15.972-6.05-2.768 2.75-5.174 5.138-8.01 8.147m125.13-16.14c-3.378 1.276-6.877 2.307-10.087 3.917-1.976.991-4.245 2.526-5.11 4.404-2.994 6.501-.216 13.907 6.055 17.56 7.22 4.204 16.894 2.338 22-4.242 4.502-5.803 4.467-13.707-.638-18.59-3.096-2.962-6.523-6.497-12.22-3.049m-20.934 13.654c-3.422-7.05-3.602-7.113-11.448-5.787-4.59.776-9.185 1.878-13.803 2.02-3.984.123-5.17 2.48-5.985 5.42-1.796 6.48 1.11 13.344 7.057 16.664 6.034 3.37 12.154 3.31 17.91-.56 6.044-4.062 8.032-9.916 6.27-17.757m-38.508 16.61c.673-3.66 2.101-7.372 1.847-10.966-.408-5.77-3.15-7.498-8.913-7.06-4.805.365-9.615 1.068-14.413.99-4.178-.069-6.104 1.964-6.975 5.534-1.207 4.946-.546 9.545 2.95 13.511 6.857 7.78 17.45 7.204 25.504-2.01m16.491 36.892c-16.781 7.598-34.504 10.582-52.543 7.64-37.213-6.068-63.156-26.826-77.143-62.128-.895-2.26-2.481-4.246-3.746-6.36 6.22 30.283 35.955 66.872 83.724 71.633 36.985 3.686 81.368-17.847 91.456-44.205-1.509.71-3.025 1.538-3.968 2.794-9.878 13.164-22.247 23.249-37.78 30.626m-13.55-22.555 10.45-5.07-10.044-7.108c-10.205 14.108-24.465 14.69-36.67 2.069l-13.767 10.72c15.968 6.164 32.633 5.95 50.031-.611M88.83 52.756l-7.734-9.778 1.317-1.427 9.272 8.593 2.398-2.197-8.123-9.805 1.818-1.53c1.796 1.754 3.658 3.446 5.375 5.274 3.223 3.432 3.188 3.465 5.806 1.16-.382-.507-.73-1.06-1.166-1.535-1.917-2.086-3.776-4.233-5.808-6.201-3.195-3.093-5.992-2.772-8.78.84-.476.618-.827 1.556-1.45 1.799-3.273 1.278-5.56 3.901-3.702 6.843 2.304 3.648 6.042 6.391 9.208 9.476.036.035.718-.592 1.57-1.512m63.845 134.271c.025-2.465.961-6.45-.107-7.09-2.521-1.51-5.996-1.427-9.699-2.1.47 5.864.688 10.503 1.337 15.08.131.921 1.901 1.61 2.916 2.406l.88-1.118-.994-4.41c5.316 3.876 5.978 4.175 7.375 3.692-.72-1.943-1.443-3.897-1.708-6.46m-38.03-11.455c-1.948-1.772-3.677-4.413-5.931-4.985-1.31-.332-3.854 2.383-5.14 4.219-1.775 2.531-2.886 5.527-4.233 8.226 2.815 2.883 3.611.878 4.722-1.216.445-.839 1.822-1.184 2.775-1.754.118 1.084.599 2.291.28 3.225-.68 1.98-2.34 3.994 1.79 4.522 1.834-3.812 3.692-7.675 5.738-12.237m-38.769-13.164.599 4.296 5.491-5.045 2.976 3.163-5.344 3.619.593 1.69c1.15-.127 2.612.148 3.39-.457 2.35-1.828 4.435-3.997 6.621-6.035 2.611-2.435 2.333-4.974.078-7.39-2.239-2.401-4.723-2.955-7.348-.455-2.164 2.062-4.357 4.094-7.056 6.614m-3.845-91.794-1.922-1.61.56-1.093 5.867 2.289 1.308-.797c-.553-1.197-.781-2.895-1.717-3.5-3.056-1.978-6.337-3.62-9.593-5.268-2.478-1.254-2.52-1.17-3.869 2.09l4.76 3.83-.708.9-5.868-2.481-1.528 3.486 14.07 7.43c2.288-2.25 2.205-3.874-1.36-5.276m128.125-33.105-8.954 9.824c7.195 8.462 10.511 5.506 15.96-2.306.846-1.212-.098-4.44-1.22-6.022-.946-1.335-2.232-4.875-5.786-1.496m-28.928-7.883-1.904 4.813 3.125 1.47 5.945-11.459 2.077.989c-1.282 3.224-2.684 6.41-3.764 9.701-.275.838.474 2.011.752 3.03.827-.505 2.034-.814 2.413-1.55 1.438-2.793 3.22-5.635 3.657-8.636.275-1.894-1.101-5.067-2.67-5.895-1.529-.806-4.683.058-6.316 1.274-1.531 1.14-2.006 3.7-3.315 6.263m-28.355-8.74-2.662-1.442 3.766-1.347.495-1.52c-2.056-1.129-4.039-2.9-6.194-3.142-1.268-.143-4.184 2.554-3.973 3.255.656 2.182 2.426 4.04 3.816 5.985.663.928 1.443 1.773 2.17 2.656l-.892.616-5.56-2.363c.338 4.98 2.65 7.004 6.312 6.098 4.32-1.068 4.96-4.36 2.722-8.796M119.048 187.76l-3.442-4.29c-1.4 3.826-1.226 6.564 1.983 7.385 1.842.471 5.068.027 5.922-1.212 1.222-1.772.844-4.647 1.149-7.052-.119-.688 1.78-1.554 1.724-2.265-.114-1.453-1.091-3.838-2.054-4.019-2.092-.392-4.4.358-6.618.642.331 2.204.278 4.57 1.118 6.56.651 1.543 4.288 2.174.218 4.25M153.387 24.1l-.456 2.89-5.235-3.322-1.494 1.913c1.59 1.523 2.963 3.804 4.834 4.337 1.57.448 4.878-.69 5.363-1.928.885-2.264.251-5.122.251-8.568-.192.252 1.302-1.27 1.11-1.525-1.092-1.454-2.45-3.372-3.982-3.644-1.522-.27-4.095.786-4.844 2.061-.74 1.26-.122 3.67.57 5.29.423.989 2.108 1.44 3.883 2.497m36.003 4.76c-2.094 2.512-4.81 4.76-6.039 7.642-.689 1.616.451 5.192 1.926 6.213 1.445 1.002 4.576.387 6.555-.471 1.443-.626 2.258-2.769 3.279-4.285 3.59-5.332 1.682-8.86-5.721-9.1m-24.46 152.843c.998 2.608 1.79 5.327 3.101 7.767.492.915 2.196 1.178 3.348 1.738l.853-1.157c-1.597-2.917-2.16-5.353 1.2-7.562.998-.655 1.404-4.096.61-5.143-1.162-1.53-3.6-2.645-5.592-2.82-1.714-.15-3.566 1.263-5.561 2.067.67 1.682 1.209 3.037 2.042 5.11m50.123-95.743c3.664 4.938 6.964 4.719 10.527-.766 1.818 3.196 3.888 2.05 4.849-.277.625-1.513.169-3.941-.698-5.442-.59-1.02-2.94-1.847-4.122-1.492-1.423.428-3.003 1.995-3.53 3.43-1.51 4.124-1.315 4.195-3.542 3.465l1.293-5.43-2.448-.746c-.814 2.157-1.628 4.314-2.329 7.258m-76.91 102.918-4.983 1.822c-.111-1.32-.258-2.11-.232-2.892.184-5.493.25-5.513 4.888-3.257.537.261 1.542.362 1.878.05.503-.468 1.047-1.66.801-2.031-1.045-1.572-2.164-3.816-3.656-4.181-1.733-.425-5.257.413-5.605 1.483-1.18 3.633-1.902 7.678-1.472 11.413.132 1.151 4.518 2.516 6.935 2.477 1.878-.03 4.387-1.785 1.446-4.884M122.293 21.58c.998-.537 1.957-1.39 3.007-1.524 1.103-.141 2.295.407 3.991.77-2.09-5.189-3.968-6.309-7.197-5.035-4.05 1.597-4.725 5.206-2.104 12.107 1.229 3.234 3.47 4.742 7.006 3.417.155-.058.356-.091.447-.206 1.157-1.473 2.378-2.908 3.361-4.49.16-.257-.754-1.18-1.17-1.795-1.284 1-2.554 2.018-3.863 2.982-.23.17-.626.114-1.635.268a1553.37 1553.37 0 0 0-1.843-6.494m85.767 29.01-8.094 5.819 5.678 7.535c.651-2.07 1.446-3.22 1.215-4.104-.904-3.463-1.035-3.303 2.285-3.034.683.056 1.743-1.113 2.14-1.95.367-.77.078-1.854.078-2.871 2.741.131 3.597 5.729 6.737 1.17l-4.672-6.386c-1.845 1.275-3.338 2.306-5.367 3.82M96.713 167.172l.567-5.303-1.822-.277c-2.132 4.957-4.265 9.913-6.39 14.856 2.935 2.147 9.729-1.913 14.99-8.88l-.598-1.301-7.725 3.738c.25-.958.406-1.561.978-2.833m-27.458-18.615c-2.396 2.325-2.768 4.882-.475 7.403 2.317 2.548 4.95 2.063 7.564.316 2.727-1.822 5.479-3.607 8.262-5.437-.81-2.782-1.848-3.933-4.462-2.02-2.54 1.86-5.28 3.45-7.236 4.709-1.3-2.342-2.139-3.853-3.653-4.971m145.595-80.62c-.679-.213-1.917-.682-1.954-.6-.888 1.931-2.837 4.705-2.164 5.73 1.169 1.78 4.218 3.738 6.041 3.382 3.793-.74 7.3-2.946 11.177-4.66l-1.779-3.594-11.915 5.176c.364-2.09.59-3.39.594-5.434m-59.901 12.64-2.58 6.418c7.365-3.527 13.69-5.923 17.705-11.566l-1.072-1.888c-4.492 2.186-8.983 4.371-14.053 7.036M102.955 41.45l6.413-3.72c-2.01-5.608-4.589.244-7.087-1.079-.986-1.718-2.019-4.004-3.499-5.95-1.237-1.626-1.577-6.103-5.924-1.951 3.142 4.346 6.312 8.732 10.097 12.7m81.208 140.095c1.244 1.612 2.223 4.387 3.959 1.977l-5.255-16.145-7.94 4.798c-.036.48-.072.959-.11 1.438l5.244 1.065c1.006 1.65 2.387 3.91 4.102 6.867M75.57 53.868c-.512-1.204-1.05-2.399-1.525-3.618-.303-.775-.513-1.587-.765-2.383-.781.255-1.852.272-2.292.807-1.765 2.15-3.335 4.46-4.977 6.71l.517 1.274 5.13-1.272 9.655 6.747 1.324-.745c-.41-1.121-.523-2.55-1.295-3.3-1.522-1.478-3.409-2.58-5.772-4.22m82.304 128.91 2.136 10.84 3.669-1.147c-.64-3.45-1.216-6.508-1.773-9.57-1.07-5.872-1.065-5.873-5-5.197.266 1.412.532 2.827.968 5.074m-68.016-41.783-5.29 1.275 5.688 7.244 1.014-.38c-.191-2.786-.382-5.571-1.412-8.14z"/><path fill="#FAFAFA" d="M162.987 65.997c-.322-.49-.811-1.446-.941-1.4-4.166 1.49-8.616 2.56-12.317 4.84-2.304 1.42-4.2 4.22-1.726 7.914.903 1.348-.643 4.338-1.17 7.092l4.096-.86 1.127 4.256c6.509-.588 12.883-.612 18.03-5.427 2.347-2.195 4.502-1.448 7.172.985 3.187 2.904 7.442 5.065 11.603 6.38 8.982 2.839 18.165 5.075 27.33 7.288 8.481 2.048 11.276 4.632 11.448 11.418.17 6.776-3.939 12.274-11.242 13.795-11.695 2.437-23.417 5.084-35.266 6.369-18.163 1.97-36.425 3.256-54.68 4.076-14.092.633-19.361-5.437-16.902-19.323 2.687-15.173 6.325-30.178 9.605-45.244.238-1.096.656-2.445 1.46-3.083 9.636-7.63 19.26-15.402 31.661-18.126 8.95-1.966 13.98 1.707 15.266 10.794.301 2.134.668 4.384.278 6.443-.236 1.25-1.865 2.235-3.377 3.078-.825-.595-1.14-.93-1.455-1.265m-10.65 57.483c2.13.915 4.211 1.979 6.408 2.682 1.1.352 3.061.554 3.525-.04 4.238-5.434 10.054-3.007 15.32-3.496 2.194-.204 5.849-.89 6.186-2.098 1.456-5.21 2.104-10.677 2.667-16.09.206-1.975-.534-4.085-1.036-6.085-.437-1.738-.715-4.333-1.851-4.864-1.304-.61-3.483.609-5.267 1.087-1.622.435-3.201 1.06-4.841 1.393-3.956.804-7.09-3.136-9.902-3.033-5.632.206-12.782-2.529-16.4 4.97-5.836-7.098-10.488-8.667-15.556-5.524-4.087 2.535-4.565 5.904-1.434 12.662-1.38-.337-3.133-.37-3.27-.858-1.807-6.387-6.328-3.396-9.601-2.408-1.484.448-3.157 3.465-3.077 5.241.178 3.941 5.351 7.544 9.416 7.346 1.329-.065 2.658-.118 3.984-.209 3.208-.22 3.945 1.172 2.437 3.857-1.889 3.362-1.638 6.446 1.337 8.938 3.132 2.626 7.308 3.316 10.116.737 3.038-2.791 6.448-3.417 10.84-4.208z"/><path fill="#FAFAFA" d="M81.193 71.31c14.33-24.422 35.366-37.506 63.29-36.855 27.462.64 47.95 14.172 60.77 38.575 2.85 5.425 4.406 11.53 5.937 17.8-14.023-2.697-27.953-4.5-37.619-16.03-1.17-1.395-1.591-3.613-1.864-5.52-.445-3.121-.544-6.297-.683-9.454-.615-13.956-10.227-21.13-23.72-17.407-11.779 3.25-21.354 10.467-30.922 17.683-1.87 1.41-4.29 2.115-6.5 3.042-5.798 2.434-11.531 5.065-17.463 7.119-3.823 1.323-7.95 1.764-11.942 2.6-.014-.166-.094-.366-.029-.49.141-.27.357-.499.745-1.064z"/><path fill="#F7F7F7" d="M73.038 133.047c4.295-1.25 8.65-2.329 12.867-3.801 3.683-1.286 7.403-2.704 10.698-4.729 1.053-.647.8-3.419 1.145-5.218-1.6.053-3.403-.34-4.752.27-1.76.798-3.286 2.265-4.694 3.665-3.212 3.192-6.638 3.995-11.288 3.225-3.502-.58-7.356 1.304-11.094 1.723-4.12.462-8.285.503-12.43.728-.05-.552-.098-1.105-.147-1.657 8.685-2.152 17.408-4.169 26.029-6.552 2.092-.578 4.415-1.982 5.586-3.713.982-1.45.44-3.932.573-5.958-1.84.03-4.05-.588-5.446.213-3.726 2.138-7.226 4.73-10.584 7.43-3.929 3.157-8.181 4.078-13.047 3.077-4.05-.833-8.143-1.449-12.392-2.68 6.019-.966 12.052-1.85 18.049-2.937 2.622-.474 6.195-.417 5.737-4.511-.348-3.11-4.287-4.37-8.145-2.982-.312.112-.717.114-.933.32-7.951 7.574-17.49 6.345-28.517 4.211 4.277-1.199 7.423-2.756 10.596-2.817 5.212-.1 9.176-2.223 13.02-5.36 7.575-6.179 8.534-6.152 16.512-.884 5.985 3.953 13.09 1.616 15.621-5.231-2.588-2.862-5.485-2.184-7.817 0-3.24 3.034-6.172 2.504-9.344.234-4.602-3.293-8.754-2.801-13.042.92-4.943 4.289-10.819 5.34-16.195 3.872 5.779-3.62 11.797-8.075 18.431-11.237 2.972-1.417 7.442-1.088 10.766-.053 5.372 1.672 13.9.146 16.762-4.388.384-.608-.524-2.894-1.254-3.136-1.041-.345-2.932.064-3.66.872-5.562 6.165-12.078 1.732-18.16 1.797-.424.004-.859-.85-.575-.549l52.415-19.655c-2.249 10.522-4.598 20.248-6.353 30.08-1.728 9.68-5.986 19.252-2.107 28.775-4.83 2.873-9.228 5.983-14.05 8.15-2.444 1.098-5.677.803-8.51.579-3.248-.257-6.446-1.134-9.996-1.945-.329-.203-.275-.148-.275-.148z"/><path fill="#E6E7E7" d="M238.022 115.71c6.154-48.722-26.337-94.42-74.01-105.13C111.868-1.138 59.811 32.103 48.926 84.745c-.597 2.885-1.455 5.716-2.69 8.426-1.61-20.23 15.24-53.817 42.091-71.371 34.18-22.345 77.917-21.847 111.528 1.802 31.805 22.38 48.395 63.857 39.654 99.14l-1.407.105c-.036-2.235-.072-4.47-.08-7.138z"/><path fill="#FBFBFB" d="M100.467 139.73c2.621-2.699 5.027-5.087 7.795-7.836 4.232 6.553 10.263 6.102 15.972 6.049 3.164-.03 4.797.94 5.814 3.948 2.322 6.872.035 14.078-6.148 18.37-5.749 3.99-14.064 3.748-19.516-.57-5.995-4.747-7.475-11.789-3.917-19.961zm125.203-16.077c5.409-3.201 8.836.334 11.932 3.295 5.105 4.884 5.14 12.788.638 18.59-5.106 6.581-14.78 8.447-22 4.242-6.271-3.652-9.05-11.058-6.054-17.56.864-1.877 3.133-3.412 5.109-4.403 3.21-1.61 6.71-2.641 10.374-4.164zm-21.06 14.284c1.6 7.458-.387 13.312-6.43 17.375-5.757 3.87-11.877 3.928-17.911.559-5.946-3.32-8.853-10.184-7.057-16.664.816-2.94 2.001-5.297 5.985-5.42 4.618-.142 9.213-1.244 13.803-2.02 7.846-1.326 8.026-1.262 11.61 6.17zm-38.886 16.54c-7.837 8.9-18.43 9.477-25.287 1.696-3.496-3.966-4.157-8.565-2.95-13.511.871-3.57 2.797-5.603 6.975-5.535 4.798.079 9.608-.624 14.413-.989 5.763-.438 8.505 1.29 8.913 7.06.254 3.594-1.174 7.306-2.064 11.279z"/><path fill="#E6E7E6" d="M182.785 190.916c15.18-7.238 27.55-17.323 37.427-30.487.943-1.256 2.459-2.083 3.968-2.794-10.088 26.358-54.471 47.89-91.456 44.205C84.955 197.08 55.22 160.49 49 130.207c1.265 2.114 2.851 4.1 3.746 6.36 13.987 35.302 39.93 56.06 77.143 62.129 18.04 2.941 35.762-.043 52.896-7.78z"/><path fill="#F5F5F5" d="M168.532 168.671c-17.048 6.39-33.713 6.604-49.681.44l13.767-10.72c12.205 12.621 26.465 12.04 36.67-2.069l10.044 7.108-10.8 5.241z"/><path fill="#EDEEED" d="M88.594 53.057c-.616.62-1.298 1.246-1.334 1.21-3.166-3.084-6.904-5.827-9.208-9.475-1.858-2.942.43-5.565 3.703-6.843.622-.243.973-1.181 1.45-1.798 2.787-3.613 5.584-3.934 8.779-.841 2.032 1.968 3.891 4.115 5.808 6.201.435.474.784 1.028 1.166 1.534-2.618 2.306-2.583 2.273-5.806-1.159-1.717-1.828-3.579-3.52-5.375-5.273l-1.818 1.529 8.123 9.805-2.398 2.197-9.272-8.593-1.317 1.427c2.578 3.26 5.156 6.519 7.499 10.08z"/><path fill="#E9E9E9" d="M152.446 187.332c.494 2.258 1.218 4.212 1.937 6.155-1.397.483-2.06.184-7.375-3.692l.993 4.41-.88 1.118c-1.014-.796-2.784-1.485-2.915-2.406-.65-4.577-.867-9.216-1.337-15.08 3.703.673 7.178.59 9.7 2.1 1.067.64.131 4.625-.123 7.395z"/><path fill="#E8E9E8" d="M114.552 175.922c-1.952 4.212-3.81 8.075-5.644 11.887-4.13-.528-2.47-2.542-1.79-4.522.319-.934-.162-2.141-.28-3.225-.953.57-2.33.915-2.775 1.754-1.111 2.094-1.907 4.1-4.722 1.216 1.347-2.699 2.458-5.695 4.232-8.226 1.287-1.836 3.83-4.55 5.14-4.219 2.255.572 3.984 3.213 5.84 5.335z"/><path fill="#E9E9E9" d="M76.136 162.17c2.44-2.282 4.633-4.314 6.797-6.376 2.625-2.5 5.109-1.946 7.348.454 2.255 2.417 2.533 4.956-.078 7.39-2.186 2.039-4.272 4.208-6.622 6.036-.777.605-2.24.33-3.39.458l-.592-1.691 5.344-3.619-2.976-3.163-5.491 5.045c-.271-1.944-.435-3.12-.34-4.534z"/><path fill="#EFF0EF" d="M72.366 70.78c3.231 1.236 3.314 2.86 1.025 5.11l-14.07-7.43 1.529-3.486 5.868 2.48.708-.9-4.76-3.829c1.349-3.26 1.391-3.344 3.869-2.09 3.256 1.648 6.537 3.29 9.593 5.267.936.606 1.164 2.304 1.717 3.501l-1.308.797-5.867-2.289-.56 1.093c.64.537 1.281 1.073 2.256 1.775z"/><path fill="#EBECEB" d="M200.425 37.261c3.286-3.131 4.572.409 5.518 1.744 1.122 1.583 2.066 4.81 1.22 6.022-5.449 7.812-8.765 10.768-15.96 2.306 2.969-3.258 5.962-6.541 9.222-10.072m2.831 4.136-7.066 5.68 1.31 1.551c3.19-.887 5.55-2.778 5.756-7.23zm-31.842-12.085c1.124-2.25 1.599-4.81 3.13-5.95 1.633-1.215 4.787-2.079 6.315-1.273 1.57.828 2.946 4.001 2.67 5.895-.436 3.001-2.218 5.843-3.656 8.637-.379.735-1.586 1.044-2.413 1.549-.278-1.019-1.027-2.192-.752-3.03 1.08-3.291 2.482-6.477 3.764-9.701l-2.077-.989-5.945 11.46c-.999-.47-1.995-.94-3.125-1.47.696-1.76 1.3-3.287 2.089-5.128z"/><path fill="#E8E9E8" d="M143.143 21.177c1.969 4.146 1.33 7.437-2.991 8.505-3.663.906-5.974-1.119-6.313-6.098l5.561 2.363.892-.616c-.727-.883-1.507-1.728-2.17-2.656-1.39-1.946-3.16-3.803-3.816-5.985-.211-.701 2.705-3.398 3.973-3.255 2.155.243 4.138 2.013 6.194 3.142l-.495 1.52-3.766 1.347c.964.522 1.813.982 2.93 1.733zm-23.735 166.732c3.71-2.225.073-2.856-.578-4.4-.84-1.989-.787-4.355-1.118-6.56 2.219-.283 4.526-1.033 6.618-.64.963.18 1.94 2.565 2.054 4.018.056.711-1.843 1.577-1.724 2.265-.305 2.405.073 5.28-1.149 7.052-.854 1.239-4.08 1.683-5.922 1.212-3.209-.82-3.382-3.56-1.983-7.384 1.417 1.765 2.43 3.027 3.802 4.437z"/><path fill="#E9E9E9" d="M153.059 23.918c-1.447-.875-3.132-1.325-3.555-2.315-.692-1.62-1.31-4.029-.57-5.289.749-1.275 3.322-2.33 4.844-2.06 1.532.27 2.89 2.189 3.982 3.643.192.255-1.302 1.777-1.11 1.525 0 3.446.634 6.304-.251 8.568-.485 1.239-3.793 2.376-5.363 1.928-1.871-.533-3.244-2.814-4.834-4.337l1.494-1.913 5.235 3.323c.14-.894.298-1.892.128-3.073z"/><path fill="#EBECEB" d="M189.729 28.728c7.064.373 8.973 3.9 5.382 9.232-1.021 1.516-1.836 3.66-3.28 4.285-1.978.858-5.109 1.473-6.554.471-1.475-1.02-2.615-4.597-1.926-6.213 1.23-2.882 3.945-5.13 6.378-7.775m.959 3.307c-1.376 1.806-2.895 3.53-4.013 5.483-.233.407 1.012 1.662 1.575 2.526 1.36-1.32 3.095-2.44 3.935-4.034.495-.94-.429-2.629-1.497-3.975zm-25.904 149.309c-.686-1.714-1.226-3.07-1.895-4.751 1.995-.804 3.847-2.217 5.56-2.067 1.993.175 4.43 1.29 5.593 2.82.794 1.047.388 4.488-.61 5.143-3.36 2.209-2.797 4.645-1.2 7.562l-.853 1.157c-1.152-.56-2.856-.823-3.348-1.738-1.312-2.44-2.103-5.16-3.247-8.126zm50.213-95.777c.758-2.55 1.572-4.708 2.386-6.865l2.448.746-1.293 5.43c2.227.73 2.031.659 3.543-3.465.526-1.435 2.106-3.002 3.529-3.43 1.182-.355 3.532.471 4.122 1.492.867 1.5 1.323 3.929.698 5.442-.961 2.326-3.03 3.473-4.85.277-3.562 5.485-6.862 5.704-10.583.373z"/><path fill="#E8E9E8" d="M138.572 188.94c2.513 3.037.004 4.791-1.874 4.822-2.417.039-6.803-1.326-6.935-2.477-.43-3.735.292-7.78 1.472-11.413.348-1.07 3.872-1.908 5.605-1.483 1.492.365 2.611 2.609 3.656 4.18.246.371-.298 1.564-.801 2.032-.336.312-1.34.211-1.878-.05-4.638-2.256-4.704-2.236-4.888 3.257-.026.783.12 1.572.232 2.892 1.903-.696 3.443-1.259 5.41-1.76z"/><path fill="#EBECEB" d="M122.401 21.944c.658 2.312 1.208 4.261 1.735 6.13 1.01-.154 1.405-.099 1.635-.268 1.31-.964 2.579-1.982 3.862-2.982.417.615 1.33 1.538 1.171 1.795-.983 1.582-2.204 3.017-3.361 4.49-.09.115-.292.148-.447.206-3.536 1.325-5.777-.183-7.006-3.417-2.621-6.9-1.946-10.51 2.104-12.107 3.23-1.274 5.106-.154 7.197 5.035-1.696-.363-2.888-.911-3.99-.77-1.051.134-2.01.987-2.9 1.888z"/><path fill="#EDEEED" d="M208.328 50.348a274.847 274.847 0 0 1 5.099-3.579l4.672 6.385c-3.14 4.56-3.996-1.038-6.737-1.17 0 1.018.29 2.101-.078 2.873-.397.836-1.457 2.005-2.14 1.95-3.32-.27-3.19-.43-2.285 3.033.231.883-.564 2.035-1.215 4.104l-5.678-7.535a907.76 907.76 0 0 0 8.362-6.061z"/><path fill="#EBECEB" d="M96.505 167.506c-.364.937-.52 1.54-.77 2.498l7.725-3.738.598 1.302c-5.261 6.966-12.055 11.026-14.99 8.879 2.125-4.943 4.258-9.9 6.39-14.856l1.822.277c-.19 1.768-.378 3.536-.775 5.638z"/><path fill="#E5E6E5" d="M69.593 148.36c1.176 1.314 2.016 2.825 3.315 5.167 1.956-1.26 4.696-2.848 7.236-4.708 2.614-1.914 3.651-.763 4.462 2.02-2.783 1.829-5.535 3.614-8.262 5.436-2.614 1.747-5.247 2.232-7.564-.316-2.293-2.52-1.92-5.078.813-7.6z"/><path fill="#EBECEB" d="M214.96 68.309c-.114 1.672-.34 2.971-.704 5.06 4.235-1.839 7.93-3.443 11.915-5.175l1.78 3.593c-3.878 1.715-7.385 3.92-11.178 4.661-1.823.356-4.872-1.602-6.041-3.382-.673-1.025 1.276-3.799 2.164-5.73.037-.082 1.275.387 2.065.973zm-59.722 12.027c4.781-2.425 9.272-4.61 13.764-6.796l1.072 1.888c-4.015 5.643-10.34 8.039-17.706 11.566 1.187-2.952 1.884-4.685 2.87-6.658z"/><path fill="#E9E9E9" d="M102.648 41.66c-3.478-4.177-6.648-8.563-9.79-12.91 4.347-4.15 4.687.326 5.924 1.952 1.48 1.946 2.513 4.232 3.499 5.95 2.498 1.323 5.076-4.53 7.087 1.079a797.56 797.56 0 0 0-6.72 3.929z"/><path fill="#EBECEB" d="M183.995 181.198a590.25 590.25 0 0 0-3.934-6.519l-5.243-1.065.11-1.438 7.939-4.798 5.255 16.145c-1.736 2.41-2.715-.365-4.127-2.325zM75.883 54.059c2.05 1.448 3.937 2.55 5.46 4.03.77.75.883 2.178 1.294 3.3l-1.324.744-9.655-6.747-5.13 1.272-.517-1.273c1.642-2.251 3.212-4.561 4.977-6.71.44-.536 1.51-.553 2.292-.808.252.796.462 1.608.765 2.383a25.006 25.006 0 0 0 1.838 3.809z"/><path fill="#E6E7E7" d="M157.789 182.362c-.35-1.831-.617-3.246-.882-4.658 3.934-.676 3.93-.675 4.999 5.198.557 3.061 1.133 6.119 1.773 9.569l-3.669 1.147c-.747-3.79-1.441-7.315-2.221-11.256z"/><path fill="#E8E9E8" d="M90.278 140.886c.61 2.677.8 5.462.992 8.248l-1.014.38-5.688-7.244c2.117-.51 3.704-.893 5.71-1.384z"/><path fill="#D2D2D2" d="M162.65 66.13c.652.202.967.537 1.357 1.214-4.163 2.295-8.4 4.248-12.639 6.2l-.87-1.81c3.938-1.824 7.876-3.648 12.151-5.604z"/><path fill="#F7F7F7" d="M72.952 132.97c-.157.256-.242.567-.432.787-.05.058-.426-.165-.652-.258.224-.185.448-.37.92-.503.25.05.196-.004.164-.026z"/><path fill="#141414" d="M151.896 123.367c-3.95.904-7.36 1.53-10.398 4.32-2.808 2.58-6.984 1.89-10.116-.736-2.975-2.492-3.226-5.576-1.337-8.938 1.508-2.685.771-4.076-2.437-3.857-1.326.09-2.655.144-3.984.209-4.065.198-9.238-3.405-9.416-7.346-.08-1.776 1.593-4.793 3.077-5.24 3.273-.989 7.794-3.98 9.6 2.407.138.489 1.891.521 3.271.858-3.13-6.758-2.653-10.127 1.434-12.662 5.068-3.143 9.72-1.574 15.555 5.524 3.619-7.499 10.77-4.764 16.4-4.97 2.813-.103 5.947 3.837 9.903 3.033 1.64-.334 3.219-.958 4.84-1.393 1.785-.478 3.964-1.697 5.268-1.087 1.136.53 1.414 3.126 1.85 4.864.503 2 1.243 4.11 1.037 6.085-.563 5.413-1.21 10.88-2.667 16.09-.337 1.208-3.992 1.894-6.187 2.098-5.265.489-11.081-1.938-15.319 3.495-.464.595-2.425.393-3.525.04-2.197-.702-4.278-1.766-6.85-2.794m29.585-7.753s.025-.03.264-.726c-.573-1.05-1.611-3.038-1.654-3.017-4.147 2.052-9.539-.864-13.276 2.447-2.686-2.51-5.262-1.51-7.508-.238l1.05 10.807c2.56-2.484 4.674-4.535 7.426-6.93 2.748 2.25 5.495 4.727 8.57-.376.445.507.889 1.015 1.55 2.08.36.08.72.16 1.769.332.79-.326 1.579-.651 2.927-1.292a130.23 130.23 0 0 0-1.118-3.087m-19.836-9.668s-.35-.157-1.115-.442l-1.895-10.291-1.425.007v12.521c1.627-.786 2.913-1.407 3.696-1.623.352.186.703.373 1.936.886 1.445-.37 2.89-.74 4.64-.348l3.176-.192v-5.522h.998l.682 4.93 1.295-1.14c1.256 1.081 2.512 2.162 3.64 3.94 1.653.15 3.306.3 5.634.323l2.489-3.198-5.463-1.425 1.598-.58c.09-1.944.18-3.888.963-6.101l-.576-2.48c-.67.917-1.338 1.835-2.695 2.907l-4.084 5.286-1.666-4.245h-5.857c-.196 2.497-.349 4.45-1.382 6.71l-2.513-7-1.336-.067c-.151 2.296-.302 4.592-.74 7.144m-34.874 1.339-5.183-2.323 1.847-1.975c-1.763.236-3.575.3-5.267.785-.793.228-1.77 1.2-1.897 1.962-.117.698.689 1.665 1.284 2.341.995 1.134 2.147 2.132 4.156 4.084.818-.595 2.531-1.84 4.318-2.365l.504 2c.46-.548 1.255-1.074 1.291-1.648.043-.684-.567-1.409-1.053-2.861m25.064.49 3.37-.637-1.606-11.401-1.368-.27c-.209 1.143-.502 2.278-.61 3.43-.254 2.7-.418 5.407-1.107 7.983-.166.03-.331.06-.501.126 0 0 .028-.027.079-.872.31-6.056-.931-7.094-6.89-5.264-.054-1.3.407-3.247-.259-3.777-1.989-1.58-4.541-3.752-6.643-3.528-2.157.23-4.5 2.732-5.792 4.835-.446.726 2.022 3.241 3.159 4.94l1.374-.627-.808 6.909c1.717-1.48 2.573-2.452 3.642-3.033.484-.262 1.391.255 2.26 1.193.279 1.105.557 2.21.1 3.084-2.255.318-4.738.196-6.649 1.183-.72.372-.117 3.31-.117 5.077-.848 2.205-2.198 5.081-1.295 6.701.878 1.574 4.187 2.725 6.204 2.445 1.727-.24 4.267-2.681 4.39-4.306.143-1.873-1.753-4.1-3.185-5.821-.91-1.095-2.588-1.552-3.921-2.295l.587-1.098 4.868 1.194c-.103-1.286-.17-2.113.395-3.682 1.63.67 3.208 1.667 4.902 1.939 3.014.485 5.173-.473 5.42-4.427m-1.478 12.692c1.296.34 2.707 1.168 3.858.897 1.399-.33 3.367-1.38 3.658-2.493.378-1.441-.202-3.696-1.236-4.755-.735-.753-3.52-.735-4.3.039-1.686 1.668-2.671 4.045-3.943 6.132.466.16.932.318 1.963.18z"/><path fill="#080808" d="M203.5 41.669c-.45 4.18-2.81 6.072-6 6.96l-1.31-1.552c2.355-1.893 4.71-3.786 7.31-5.408z"/><path fill="#141414" d="M191.08 32.032c.676 1.35 1.6 3.038 1.105 3.978-.84 1.593-2.576 2.714-3.935 4.034-.563-.864-1.808-2.119-1.575-2.526 1.118-1.954 2.637-3.677 4.404-5.486z"/><path fill="#E5E6E5" d="M139.98 107.007c-.715-.163-1.622-.68-2.106-.418-1.069.58-1.925 1.553-3.642 3.033l.808-6.91-1.374.627c-1.137-1.698-3.605-4.213-3.159-4.939 1.292-2.103 3.635-4.606 5.792-4.835 2.102-.224 4.654 1.948 6.643 3.528.666.53.205 2.477.665 4.222.9 1.686 1.395 2.927 1.878 4.135l-5.504 1.557z"/><path fill="#E0E1E0" d="m140.88 111.006.236 2.94-4.868-1.194-.587 1.098c1.333.743 3.01 1.2 3.921 2.295 1.432 1.722 3.328 3.948 3.185 5.821-.123 1.625-2.663 4.066-4.39 4.306-2.017.28-5.326-.871-6.204-2.445-.903-1.62.447-4.496 1.295-6.7 0-1.769-.603-4.706.117-5.078 1.911-.987 4.394-.865 6.995-1.09.346.092.3.047.3.047m-6.701 10.724c1.36.755 2.66 1.756 4.117 2.118.448.111 1.987-1.634 1.872-2.34-.216-1.323-1.276-2.508-1.93-3.656-1.593 1.41-2.622 2.32-4.06 3.878z"/><path fill="#EBECEB" d="m177.4 107.974-3.768-3.242-1.295 1.14-.682-4.93h-.998v5.522c-1.014.062-2.095.127-3.293-.248-.117-.44-.25-.656-.25-.656l.5-6.4h5.858l1.666 4.244c1.528-1.977 2.806-3.631 4.743-5.356a28.576 28.576 0 0 1 1.918-.087l-.27 5.83-1.597.58 5.463 1.426c-1.06 1.362-1.774 2.28-3.102 3.097a585.54 585.54 0 0 1-4.894-.92m2.007-7.499s.122-.078 0 0z"/><path fill="#E8E9E8" d="M140.057 107.395c1.641-.874 3.358-1.36 5.428-1.945-.483-1.208-.977-2.449-1.478-4.048 5.153-2.362 6.395-1.324 5.767 5.187-.632.855-.948 1.254-1.263 1.653.26.091.719.303.747.255.293-.484.516-1.011.758-1.527.166-.03.331-.06.73.228.244.487.254.656.263.825.577 3.707-1.582 4.665-4.596 4.18-1.694-.272-3.272-1.269-5.217-1.568-.315.371-.27.416-.248.439-.257-1.082-.535-2.187-.89-3.68z"/><path fill="#DBDCDC" d="M176.059 117.997c-2.782 4.687-5.529 2.21-8.651-.265-.397-1.025-.419-1.825-.44-2.625 3.583-4.1 8.975-1.184 13.122-3.236.043-.021 1.08 1.967 1.094 3.48-2.302.57-4.044.68-5.787.788l.662 1.858z"/><path fill="#E5E6E5" d="M166.89 114.712c.1 1.195.121 1.995.198 3.193-2.058 2.447-4.172 4.498-6.731 6.982l-1.051-10.807c2.246-1.272 4.822-2.272 7.585.632z"/><path fill="#C4C9C8" d="m125.955 109.072-4.245 3.087c-2.01-1.952-3.16-2.95-4.156-4.084-.595-.676-1.4-1.643-1.284-2.341.127-.763 1.104-1.734 1.897-1.962 1.692-.485 3.504-.549 5.267-.785l-1.847 1.975c1.728.774 3.455 1.548 5.032 2.79-.37.723-.542 1.006-.664 1.32z"/><path fill="#D2D2D2" d="M150.072 120.617c-.748-.01-1.214-.17-1.68-.33 1.272-2.086 2.257-4.463 3.942-6.131.781-.774 3.566-.792 4.301-.039 1.034 1.059 1.614 3.314 1.236 4.755-.291 1.113-2.259 2.163-3.658 2.493-1.151.271-2.562-.556-4.14-.748z"/><path fill="#DBDCDC" d="M151.421 107.9c-.421-.046-.43-.215-.43-.639.21-2.957.375-5.665.628-8.363.109-1.153.402-2.288.611-3.431l1.368.27 1.606 11.401c-.95.18-2.16.409-3.783.761z"/><path fill="#E0E1E0" d="m161.41 105.712-4.201 2.03V95.22l1.425-.007c.632 3.43 1.264 6.86 2.3 10.413.403.122.475.086.475.086z"/><path fill="#C4C9C8" d="M166.673 105.715c.44-.155.574.06.538.12-1.48.428-2.925.799-4.86.76-.467-.574-.444-.74-.42-.905l.453-6.888 1.336.067c.837 2.333 1.675 4.666 2.953 6.846z"/><path fill="#D2D2D2" d="M176.206 117.789c-.368-.412-.588-1.031-.809-1.65 1.743-.109 3.485-.217 5.668-.44.44-.115.415-.085.273.269.14 1.252.42 2.15.701 3.048-.79.326-1.579.651-2.867.713-.828-.384-1.158-.504-1.487-.625-.444-.508-.888-1.016-1.48-1.315z"/><path fill="#E0E1E0" d="M177.336 108.323c1.49-.076 2.918.197 4.62.635-1.378.014-3.031-.136-4.62-.635zm4.81-10.497c-.767.14-1.186.146-1.921.145.354-.925 1.023-1.843 1.692-2.76.192.826.384 1.653.23 2.615z"/><path fill="#DBDCDC" d="M182.319 118.859c-.56-.741-.841-1.64-.968-2.897.518.673.883 1.706.968 2.897z"/><path fill="#FAFAFA" d="M125.991 109.433c.086-.675.257-.958.708-1.308.557.612 1.167 1.337 1.124 2.02-.036.575-.831 1.101-1.29 1.65a42.698 42.698 0 0 1-.542-2.362z"/><path fill="#E0E1E0" d="M161.787 105.818c.12.038.097.203.123.614-.302.059-.653-.128-.753-.517.252-.203.18-.167.159-.146-.022.02.328.177.471.05z"/><path fill="#DBDCDC" d="M177.793 119.383c.221-.158.55-.038 1.034.3-.206.138-.566.058-1.034-.3z"/><path fill="#080808" d="M134.383 121.407c1.233-1.234 2.262-2.145 3.854-3.555.655 1.148 1.715 2.333 1.93 3.655.116.707-1.423 2.452-1.871 2.341-1.458-.362-2.757-1.363-3.913-2.441z"/><path fill="#E0E1E0" d="M179.467 100.436c.06-.039-.061.04 0 0z"/><path fill="#E5E6E5" d="M150.014 106.988c-.24.498-.463 1.025-.756 1.51-.028.047-.487-.165-.747-.256.315-.4.63-.798 1.238-1.23.29-.033.263-.006.265-.024z"/></svg>